<?xml version="1.0" encoding="utf-8"?>
<!-- Generator: Adobe Illustrator 16.0.0, SVG Export Plug-In . SVG Version: 6.00 Build 0)  -->
<!DOCTYPE svg PUBLIC "-//W3C//DTD SVG 1.1//EN" "http://www.w3.org/Graphics/SVG/1.1/DTD/svg11.dtd">
<svg version="1.1" id="Layer_1" xmlns="http://www.w3.org/2000/svg" xmlns:xlink="http://www.w3.org/1999/xlink" x="0px" y="0px"
	 width="275px" height="100px" viewBox="0 0 275 100" enable-background="new 0 0 275 100" xml:space="preserve">
<g>
	<path fill="#949DB4" d="M66.805,34.002v6.529h9.794v1.97h-9.794v7.115h-2.381V32.059h12.475v1.944H66.805L66.805,34.002z"/>
	<path fill="#949DB4" d="M93.605,49.617L91.6,44.482h-8l-2.019,5.135h-2.466l7.165-17.558h2.704l7.053,17.558H93.605L93.605,49.617z
		 M88.634,36.831c-0.134-0.332-0.26-0.668-0.38-1.009c-0.121-0.341-0.227-0.65-0.318-0.928c-0.092-0.279-0.168-0.511-0.231-0.698
		c-0.063-0.187-0.098-0.302-0.106-0.343c-0.016,0.042-0.054,0.158-0.112,0.349c-0.058,0.192-0.135,0.429-0.23,0.711
		c-0.096,0.283-0.204,0.595-0.324,0.935s-0.242,0.677-0.367,1.009l-2.244,5.769h6.568L88.634,36.831z"/>
	<path fill="#949DB4" d="M100.993,49.617V32.059h2.38v17.558H100.993z"/>
	<path fill="#949DB4" d="M122.785,49.617l-4.562-7.291h-5.47v7.291h-2.38V32.059h8.263c0.894-0.014,1.786,0.102,2.648,0.342
		c0.705,0.197,1.364,0.533,1.937,0.991c0.518,0.425,0.929,0.969,1.197,1.583c0.282,0.666,0.422,1.382,0.411,2.106
		c0,0.557-0.083,1.111-0.244,1.645c-0.161,0.538-0.42,1.042-0.766,1.483c-0.369,0.465-0.82,0.859-1.333,1.159
		c-0.601,0.345-1.26,0.578-1.944,0.685l4.984,7.564H122.785L122.785,49.617z M122.435,37.105c0.012-0.476-0.082-0.948-0.273-1.384
		c-0.18-0.388-0.455-0.724-0.797-0.978c-0.382-0.277-0.814-0.476-1.271-0.586c-0.555-0.135-1.124-0.199-1.694-0.192h-5.646v6.48
		h5.745c0.6,0.012,1.198-0.074,1.77-0.256c0.455-0.145,0.874-0.384,1.228-0.703c0.316-0.294,0.559-0.656,0.711-1.06
		C122.361,38.003,122.439,37.556,122.435,37.105L122.435,37.105z"/>
	<path fill="#949DB4" d="M133.736,34.002v6.529h9.793v1.97h-9.793v7.116h-2.381V32.059h12.473v1.944H133.736L133.736,34.002z"/>
	<path fill="#949DB4" d="M149.758,49.617V32.059h2.38v17.558H149.758z"/>
	<path fill="#949DB4" d="M159.138,49.617V32.059h13.322v1.944h-10.941v5.632h10.193v1.918h-10.193v6.119h11.45v1.945H159.138z"/>
	<path fill="#949DB4" d="M178.712,49.617V32.059h2.38v15.613h8.873v1.945H178.712L178.712,49.617z"/>
	<path fill="#949DB4" d="M210.573,40.656c0.026,1.32-0.198,2.633-0.66,3.869c-0.398,1.052-1.015,2.007-1.807,2.805
		c-0.771,0.755-1.696,1.337-2.71,1.706c-1.08,0.394-2.221,0.59-3.37,0.581h-6.568V32.059l5.808-0.001
		c1.266-0.011,2.527,0.158,3.744,0.505c1.082,0.304,2.087,0.836,2.947,1.559c0.842,0.728,1.501,1.643,1.924,2.672
		C210.37,38.021,210.605,39.335,210.573,40.656z M208.182,40.656c0.025-1.039-0.147-2.073-0.512-3.046
		c-0.307-0.796-0.797-1.506-1.432-2.075c-0.641-0.553-1.394-0.96-2.206-1.19c-0.915-0.261-1.864-0.389-2.816-0.38h-3.377v13.745
		h3.911c0.875,0.008,1.743-0.144,2.563-0.449c0.769-0.288,1.465-0.744,2.037-1.334c0.6-0.631,1.059-1.384,1.346-2.205
		C208.036,42.736,208.201,41.699,208.182,40.656L208.182,40.656z"/>
	<path fill="#949DB4" d="M72.603,66.972l-2.586-4.134h-3.102v4.134h-1.35v-9.956h4.685c0.507-0.008,1.013,0.058,1.5,0.194
		c0.401,0.112,0.775,0.302,1.099,0.563c0.294,0.241,0.527,0.548,0.679,0.896c0.16,0.378,0.24,0.784,0.232,1.194
		c0,0.316-0.045,0.631-0.138,0.933c-0.09,0.305-0.238,0.591-0.434,0.842c-0.208,0.264-0.465,0.485-0.756,0.656
		c-0.34,0.196-0.714,0.327-1.102,0.388l2.826,4.29H72.603L72.603,66.972z M72.406,59.878c0.005-0.27-0.047-0.538-0.156-0.785
		c-0.103-0.22-0.258-0.41-0.452-0.555c-0.217-0.156-0.461-0.27-0.721-0.332c-0.314-0.076-0.638-0.113-0.961-0.109h-3.201v3.674
		h3.257c0.34,0.007,0.679-0.042,1.004-0.145c0.258-0.081,0.495-0.218,0.696-0.399c0.179-0.166,0.317-0.371,0.403-0.601
		C72.363,60.386,72.407,60.134,72.406,59.878L72.406,59.878z"/>
	<path fill="#949DB4" d="M81.081,66.972v-9.956h7.553v1.103h-6.203v3.194h5.779v1.087h-5.779v3.471h6.493v1.102H81.081
		L81.081,66.972z"/>
	<path fill="#949DB4" d="M103.597,64.224c0.004,0.399-0.08,0.795-0.244,1.158c-0.171,0.363-0.43,0.678-0.752,0.915
		c-0.387,0.278-0.821,0.482-1.283,0.6c-0.598,0.154-1.215,0.228-1.833,0.216c-1.007,0.057-2.011-0.169-2.897-0.65
		c-0.681-0.417-1.16-1.097-1.321-1.879l1.308-0.261c0.062,0.249,0.164,0.488,0.303,0.705c0.145,0.221,0.333,0.407,0.555,0.549
		c0.267,0.166,0.56,0.287,0.866,0.356c0.406,0.092,0.82,0.134,1.237,0.128c0.37,0.002,0.739-0.032,1.102-0.104
		c0.302-0.057,0.594-0.162,0.861-0.313c0.231-0.133,0.424-0.321,0.563-0.548c0.14-0.244,0.208-0.521,0.201-0.803
		c0.013-0.28-0.065-0.558-0.222-0.791c-0.165-0.215-0.379-0.388-0.625-0.502c-0.308-0.145-0.63-0.256-0.961-0.332
		c-0.372-0.09-0.785-0.186-1.237-0.289c-0.278-0.062-0.557-0.129-0.837-0.201c-0.273-0.071-0.543-0.158-0.806-0.262
		c-0.251-0.098-0.493-0.218-0.724-0.357c-0.22-0.131-0.418-0.297-0.586-0.49c-0.167-0.196-0.3-0.422-0.388-0.665
		c-0.099-0.28-0.147-0.575-0.142-0.872c-0.011-0.422,0.088-0.84,0.287-1.211c0.192-0.339,0.466-0.624,0.795-0.831
		c0.369-0.229,0.775-0.39,1.202-0.474c0.492-0.102,0.994-0.151,1.497-0.148c0.532-0.009,1.063,0.04,1.583,0.146
		c0.392,0.078,0.768,0.226,1.109,0.434c0.291,0.184,0.539,0.429,0.724,0.719c0.192,0.308,0.338,0.642,0.435,0.991l-1.328,0.233
		c-0.061-0.228-0.158-0.444-0.287-0.643c-0.127-0.191-0.294-0.354-0.491-0.474c-0.228-0.138-0.478-0.236-0.738-0.289
		c-0.721-0.141-1.464-0.132-2.183,0.023c-0.271,0.064-0.528,0.178-0.756,0.336c-0.178,0.127-0.32,0.299-0.41,0.499
		c-0.083,0.195-0.125,0.406-0.124,0.618c-0.011,0.261,0.067,0.52,0.223,0.731c0.163,0.201,0.369,0.364,0.603,0.476
		c0.283,0.138,0.579,0.244,0.883,0.318c0.334,0.085,0.69,0.171,1.066,0.254c0.307,0.071,0.612,0.143,0.916,0.217
		c0.295,0.07,0.587,0.157,0.872,0.261c0.27,0.098,0.531,0.218,0.781,0.356c0.236,0.133,0.449,0.302,0.632,0.503
		c0.184,0.204,0.326,0.44,0.421,0.699C103.553,63.58,103.604,63.901,103.597,64.224z"/>
	<path fill="#949DB4" d="M110.661,66.972v-9.956h1.35v9.956H110.661z"/>
	<path fill="#949DB4" d="M128.169,61.892c0.015,0.749-0.113,1.493-0.375,2.193c-0.225,0.597-0.574,1.138-1.024,1.59
		c-0.437,0.429-0.961,0.759-1.537,0.969c-0.612,0.222-1.259,0.333-1.911,0.328h-3.724v-9.956h3.292
		c0.717-0.007,1.433,0.09,2.124,0.286c0.613,0.173,1.183,0.475,1.67,0.884c0.477,0.413,0.852,0.932,1.092,1.516
		C128.054,60.397,128.188,61.142,128.169,61.892z M126.813,61.892c0.015-0.589-0.084-1.176-0.29-1.729
		c-0.174-0.45-0.453-0.854-0.812-1.176c-0.362-0.314-0.79-0.545-1.251-0.676c-0.519-0.148-1.057-0.221-1.596-0.216h-1.916v7.795
		h2.219c0.495,0.005,0.987-0.081,1.451-0.255c0.437-0.163,0.831-0.422,1.156-0.756c0.34-0.358,0.6-0.784,0.763-1.251
		C126.731,63.07,126.824,62.482,126.813,61.892z"/>
	<path fill="#949DB4" d="M135.113,66.972v-9.956h7.553v1.103h-6.203v3.194h5.78v1.087h-5.78v3.471h6.494v1.102H135.113z"/>
	<path fill="#949DB4" d="M156.289,66.972l-5.328-8.479c0.01,0.232,0.021,0.46,0.035,0.686c0.01,0.193,0.018,0.396,0.025,0.611
		s0.01,0.404,0.01,0.568v6.614h-1.2v-9.956h1.567l5.385,8.536l-0.042-0.693c-0.009-0.198-0.02-0.413-0.028-0.647
		c-0.01-0.232-0.015-0.454-0.015-0.666v-6.529h1.216v9.956H156.289L156.289,66.972z"/>
	<path fill="#949DB4" d="M169.246,58.118v8.854h-1.344v-8.854h-3.42v-1.103h8.183v1.103H169.246z"/>
	<path fill="#949DB4" d="M179.396,66.972v-9.956h1.35v9.956H179.396z"/>
	<path fill="#949DB4" d="M195.393,66.972l-1.137-2.912h-4.536l-1.146,2.912h-1.398l4.063-9.956h1.533l3.999,9.956H195.393z
		 M192.573,59.722c-0.075-0.188-0.146-0.378-0.215-0.572c-0.069-0.192-0.128-0.369-0.181-0.526
		c-0.051-0.157-0.095-0.289-0.131-0.396c-0.035-0.104-0.056-0.17-0.059-0.193c-0.011,0.023-0.032,0.09-0.064,0.197
		c-0.033,0.108-0.078,0.243-0.131,0.403c-0.054,0.159-0.115,0.337-0.184,0.53s-0.137,0.384-0.209,0.572l-1.272,3.271h3.725
		L192.573,59.722z"/>
	<path fill="#949DB4" d="M203.053,66.972v-9.956h1.348v8.854h5.031v1.102H203.053z"/>
</g>
</svg>
