<svg xmlns="http://www.w3.org/2000/svg" xmlns:xlink="http://www.w3.org/1999/xlink" width="275" height="100" viewBox="0 0 275 100">
  <defs>
    <polygon id="blanton-turner-a" points="0 .268 11.155 .268 11.155 23.409 0 23.409"/>
    <polygon id="blanton-turner-c" points=".303 .142 12.436 .142 12.436 12.171 .303 12.171"/>
    <polygon id="blanton-turner-e" points=".055 .284 9.424 .284 9.424 11.792 .055 11.792"/>
  </defs>
  <g fill="none" fill-rule="evenodd" transform="translate(40 37)">
    <g transform="translate(0 .061)">
      <mask id="blanton-turner-b" fill="#fff">
        <use xlink:href="#blanton-turner-a"/>
      </mask>
      <path fill="#949DB4" d="M0.0198684211,11.9186184 C0.0198684211,8.47519737 0.0504605263,5.03144737 0.000460526316,1.58868421 C-0.0136842105,0.606447368 0.253092105,0.278486842 1.28697368,0.271578947 C4.67282895,0.249868421 4.6725,0.204473684 4.6725,3.54855263 C4.6725,8.13967105 4.70901316,12.7314474 4.64684211,17.3219079 C4.63138158,18.4580921 4.93269737,18.9327632 6.10046053,18.7775 C6.63894737,18.7057895 7.19486842,18.7653289 7.74322368,18.7653289 C11.1603289,18.7653289 11.4705263,19.1633553 10.9619737,22.6048026 C10.8623026,23.2794737 10.5419079,23.4008553 9.99190789,23.4001974 C6.97776316,23.3969079 3.96361842,23.3784868 0.949802632,23.4092008 C-0.0939473684,23.4196053 0.0185526316,22.7465789 0.0192105263,22.0850658 C0.0211842105,18.69625 0.0198684211,15.3074342 0.0198684211,11.9186184" mask="url(#blanton-turner-b)"/>
    </g>
    <path fill="#949DB4" d="M17.4417105 15.1559211C17.4413816 17.5565789 17.4117763 19.9578947 17.4561842 22.3578947 17.4736184 23.2802632 17.1334868 23.6263158 16.2180263 23.6121711 11.7601316 23.5430921 12.6959868 24.0996711 12.6239474 20.3154605 12.5729605 17.6427632 12.5874342 14.9677632 12.6278947 12.2950658 12.6407237 11.4519737 12.3792105 11.1276316 11.5088158 11.1625 10.08875 11.2194079 8.66375 11.1453947 7.24302632 11.1894737 6.41276316 11.2154605 6.10651316 10.9240132 6.04697368 10.0730263 5.79138158 6.42401316 5.76473684 6.42565789 9.46046053 6.42565789 11.5940132 6.42565789 13.7298684 6.48684211 15.8601316 6.40164474 17.0630921 6.35361842 17.5150658 6.69736842 17.4680263 7.95460526 17.3785526 10.3519737 17.4420395 12.7552632 17.4417105 15.1559211M31.3769737 7.38302632C33.5625 7.43236842 35.7480263 7.46723684 37.9335526 7.49815789 39.8917763 7.52578947 41.3532895 8.3725 41.9657895 10.2478289 42.5582237 12.0609868 42.1493421 13.7001316 40.4407895 14.9813816 42.7967105 16.7534211 43.44375 18.3231579 42.7868421 20.4902632 42.2029605 22.4159211 40.5207237 23.5698684 37.9391447 23.6803947 35.8092105 23.7718421 33.6740132 23.7455263 31.5414474 23.7810526 30.8924342 23.7922368 30.3595395 23.7678947 30.3545172 22.8695395 30.35 22.0715132 30.5236842 21.5830263 31.4391447 21.7126316 32.3746711 21.8451974 32.5049342 21.3228289 32.4983553 20.5451974 32.4703947 17.2715132 32.4677632 13.9971711 32.4986842 10.7234868 32.5065789 9.86032895 32.3 9.35276316 31.3171053 9.45243421 30.4638158 9.53894737 30.3592105 9.00539474 30.3608553 8.31361842 30.3621711 7.58236842 30.7151316 7.36822368 31.3769737 7.38302632zM36.3264474 16.1833224C34.4758105 16.1201876 34.8707502 17.1418449 34.9402433 18.042698 34.9601098 18.3000254 34.9533596 18.5474653 34.860145 18.7569621L34.8489237 18.781311 34.8489237 18.781311 34.8089498 18.8537942C34.8077305 18.8557574 34.8065016 18.8577163 34.8052632 18.8596711 35.1646132 19.2737395 34.9025731 19.9807991 34.8509063 20.5891355 34.796401 21.2314927 34.9763448 21.7637976 36.3701974 21.7247697L36.1705694 21.7264334C36.2342335 21.7272755 36.3008013 21.726751 36.3703947 21.7248026 38.2336355 21.6724172 39.385811 21.3434043 39.9729345 20.5921212 40.2818259 20.1969994 40.4343174 19.6851292 40.4517763 19.0352961 40.5034211 17.1218092 39.1570395 16.2803618 36.3264474 16.1833224zM34.9207237 11.6425658L34.9210408 12.0779956C34.9257981 14.1205338 35.0019137 14.1864221 36.2197643 14.1885476L36.3453947 14.1886184 36.3453947 14.1886184C38.6542763 14.1882895 39.6138158 13.4560526 39.5773026 11.7211842 39.5440789 10.1504605 38.5259868 9.54388158 36.2911184 9.43434211 34.1375 9.32907895 35.2046053 10.9007895 34.9207237 11.6425658zM131.249638 13.5058882C130.229243 13.7394408 129.65227 13.4716776 129.824638 12.2933882 129.871678 11.9723355 129.832204 11.6384539 129.831217 11.3108224 129.827928 9.65194079 128.347993 8.78680921 126.802599 9.51411184 126.342401 9.73088816 126.378914 10.1035855 126.378257 10.4743092 126.372664 13.8627961 126.395691 17.2516118 126.36148 20.6397697 126.35227 21.5420724 126.757204 21.8025987 127.558191 21.7081908 128.337138 21.6160855 128.612467 21.9483224 128.613454 22.7328618 128.61477 23.5578618 128.243059 23.7499671 127.510822 23.7354934 125.922664 23.7039145 124.332862 23.7101645 122.744046 23.7328618 122.080888 23.7424013 121.733191 23.5601645 121.743388 22.8124671 121.752928 22.1203618 121.826941 21.5828618 122.700296 21.7137829 123.746678 21.8703618 123.987796 21.3999671 123.970691 20.4200329 123.915099 17.1963487 123.880888 13.969375 123.981546 10.7476645 124.025296 9.34536184 123.251941 9.42924342 122.330888 9.45490132 121.418388 9.48023026 120.353586 9.22792763 120.535164 10.7680592 120.60523 11.3611513 120.507533 11.9723355 120.554901 12.5697039 120.620362 13.394375 120.222664 13.5683882 119.48023 13.5713487 118.712796 13.5743092 118.334507 13.3460197 118.443717 12.5440461 118.451283 12.4904276 118.440757 12.4345066 118.445033 12.3802303 118.573322 10.7680592 117.759836 8.72299342 118.802599 7.65983553 119.70852 6.73582237 121.722664 7.42266447 123.245362 7.39634868 125.655559 7.35523026 128.068059 7.42463816 130.477599 7.36707237 131.500954 7.34273026 132.038125 7.57200658 131.882533 8.71838816 131.66773 10.2973355 132.234836 11.9302303 131.569375 13.4831908 131.449638 13.3078618 131.344046 13.3289145 131.249638 13.5058882M14.9109868 5.0575C12.4998026 5.0575 10.0876316 5.01605263 7.67842105 5.07690789 6.65473684 5.10289474 6.23631579 4.86835526 6.23105263 3.73480263 6.21460526.385131579 6.16263158.385460526 9.58796053.385460526 13.7527632.385460526 17.9178947.423947368 22.0813816.360460526 23.2428947.342697368 23.7274342.555197368 23.7034211 1.86375 23.6445395 5.05618421 23.7152632 5.0575 20.5001316 5.0575L14.9109868 5.0575zM73.6560526 19.3672039C73.65375 18.2201645 73.7096711 17.0695066 73.6396053 15.9267434 73.5517763 14.4951645 72.8353289 14.0254276 71.4303947 14.3619408 69.5106579 14.8214803 69.0027632 15.4494408 69.0007895 17.3672039 69.0001316 18.2412171 69.0086842 19.1152303 68.9984868 19.9892434 68.9882895 20.9152303 68.7988158 21.9112829 70.3231579 21.7405592 71.0639474 21.6573355 70.9511184 22.3221382 70.9695395 22.7974671 70.9882895 23.2800329 70.8905921 23.6757566 70.2817105 23.6754276 68.6389474 23.6747697 66.9955263 23.6665461 65.3527632 23.6820066 64.6317105 23.6889145 64.5938816 23.2297039 64.5945395 22.6994408 64.5951974 22.1747697 64.6251316 21.6221382 65.3409211 21.7280592 66.82875 21.948125 66.7221711 20.998125 66.7044079 20.0303618 66.6767763 18.5560197 66.6731579 17.0800329 66.7063816 15.6060197 66.7234868 14.841875 66.5961842 14.2843092 65.6540789 14.4079934 64.7218421 14.5303618 64.5826974 14.0218092 64.5770628 13.2369408 64.5711842 12.3083224 65.185 12.1928618 65.7632895 12.3780592 66.8655921 12.7310197 68.4290789 11.3629276 69.1228289 13.2833224 69.2547368 13.648125 69.5945395 13.3030592 69.7961842 13.1849671 70.5106579 12.766875 71.2629605 12.4405592 72.0734868 12.285625 74.2030921 11.879375 75.6652632 12.8563487 75.8639474 15.0099671 76.0290789 16.7984539 75.9570395 18.610625 75.9507895 20.4119408 75.9481579 21.1833224 75.9310526 21.8625987 77.0290789 21.7198355 77.8317105 21.6152303 77.8688816 22.1639145 77.885 22.7635855 77.9040789 23.4579934 77.6330263 23.7912171 76.9231579 23.7257566 76.8688816 23.7208224 76.8132895 23.7234539 76.7586842 23.7267434 73.6580263 23.9070066 73.6580263 23.9070066 73.6583553 20.841875 73.6583553 20.3504276 73.6583553 19.8589803 73.6560526 19.3672039M166.157237 19.3117763C166.157237 18.1650658 166.211842 17.0153947 166.143421 15.8726316 166.055921 14.4180263 165.364145 13.9706579 163.952303 14.3443421 161.941447 14.8765789 161.51875 15.4249342 161.518421 17.5045395 161.518421 18.4331579 161.561513 19.3644079 161.506579 20.2897368 161.450658 21.2328289 161.560855 21.9084868 162.778289 21.7269079 163.55 21.6117763 163.474671 22.2078289 163.474671 22.6976316 163.474671 23.1946711 163.525 23.6973026 162.761184 23.6851316 161.173355 23.6607895 159.584868 23.6663816 157.996382 23.6805263 157.288158 23.6867763 157.222368 23.25125 157.23125 22.7098026 157.240132 22.1936842 157.238158 21.6334868 157.965132 21.7301974 159.219408 21.8966447 159.246382 21.1565132 159.215461 20.2469737 159.173026 18.9920395 159.216118 17.7344737 159.201316 16.4782237 159.188487 15.4588158 159.599013 14.1986184 157.735197 14.3384211 157.025 14.3917105 157.288816 13.6167105 157.238816 13.1726316 157.175329 12.6098026 157.533553 12.2621053 158.007237 12.3894079 159.216447 12.7134211 160.893092 11.3380921 161.659539 13.3769079 161.745066 13.6042105 162.13125 13.3242763 162.370395 13.2170395 163.016776 12.9272368 163.65 12.5792105 164.326974 12.3917105 166.822039 11.7009211 168.413158 12.9009211 168.445066 15.4703289 168.466447 17.2180263 168.466118 18.9667105 168.442105 20.7144079 168.433224 21.3607895 168.568092 21.8107895 169.334539 21.7075 170.214145 21.58875 170.447697 21.9769079 170.446714 22.8180263 170.445395 23.7285526 169.945066 23.7413816 169.287829 23.7308553 165.471382 23.6696711 166.301645 24.1713158 166.204276 20.7867763 166.189803 20.2956579 166.201974 19.8035526 166.201974 19.3117763 166.187171 19.3117763 166.172039 19.3117763 166.157237 19.3117763M108.707566 19.4556908C108.707566 18.2007566 108.763158 16.9422039 108.692105 15.6912171 108.61875 14.3997697 107.797039 14.0431908 106.623355 14.3020724 104.609539 14.7464803 104.000658 15.4958224 104.000329 17.5172039 104 18.5010855 104.042434 19.4869408 103.9875 20.4678618 103.939145 21.3264145 104.125329 21.8566776 105.132895 21.7172039 105.946711 21.6047039 105.963487 22.1359539 105.982895 22.7366118 106.005921 23.4323355 105.760526 23.7122697 105.040132 23.6928618 103.616447 23.6540461 102.190789 23.6645724 100.766776 23.6885855 100.108224 23.6997697 99.7523026 23.5204934 99.7427632 22.7760855 99.7332237 22.0306908 99.9411184 21.6109539 100.757895 21.7112829 101.604934 21.8155592 101.751974 21.3497697 101.737829 20.6306908 101.704934 18.9372697 101.695395 17.241875 101.740789 15.5491118 101.763158 14.723125 101.515461 14.3198355 100.634211 14.3984539 99.7092105 14.4806908 99.7694079 13.8181908 99.7526316 13.1948355 99.73125 12.3905592 100.282237 12.2306908 100.837829 12.373125 102.004276 12.6721382 103.609539 11.4369408 104.346053 13.3593092 104.429934 13.5787171 104.828947 13.2701645 105.044737 13.1395724 105.756579 12.7083224 106.523026 12.4188487 107.335855 12.2774013 109.463816 11.9063487 110.869408 13.0004276 110.950329 15.1589803 111.015789 16.9053618 110.988158 18.6560197 110.965461 20.4047039 110.955263 21.1813487 110.956579 21.8701645 112.047039 21.7135855 112.926974 21.5872697 113.006908 22.1211513 113.010223 22.8093092 113.013487 23.5264145 112.70625 23.6997697 112.022039 23.7454934 108.803618 23.9596382 108.805263 23.9833224 108.805263 20.7675329L108.805263 19.4556908C108.772697 19.4556908 108.740132 19.4556908 108.707566 19.4556908M177.682599 17.0520395C178.606283 17.0520395 179.529967 17.0293421 180.452664 17.0592763 181.214178 17.0839474 181.265164 16.7760526 180.971414 16.1842763 180.353651 14.9385526 179.411217 14.1046711 178.015493 13.8885526 176.66023 13.6783553 175.55398 14.1721053 174.740822 15.2592763 174.392138 15.7250658 173.915164 16.2882237 174.205625 16.8513816 174.434901 17.2964474 175.09773 17.0207895 175.565164 17.0438158 176.269112 17.0783553 176.976678 17.0526974 177.682599 17.0520395M182.857599 18.5066447C180.291151 18.5319737 177.723717 18.5967763 175.157599 18.5645395 174.022072 18.5500658 173.826678 18.8704605 174.298388 19.8842763 175.390822 22.2332895 178.519441 22.8901974 180.714507 21.1760526 181.013191 20.9428289 181.255954 20.5556579 181.586875 20.4645395 182.212862 20.2921711 182.770428 20.6823026 183.189507 21.0803289 183.571086 21.4421711 183.087204 21.7569737 182.870428 22.0161842 181.149375 24.0747368 177.135559 24.6823026 174.534572 23.2964474 171.952664 21.9211184 170.833257 19.0921711 171.71352 16.1678289 172.515164 13.5033553 175.477664 11.6349342 178.222072 12.0622368 181.294112 12.5408553 183.574375 15.0895395 183.527664 17.9878947 183.523717 18.2253947 183.452664 18.4040132 183.214507 18.4875658 183.080296 18.2132237 182.963191 18.2490789 182.857599 18.5066447"/>
    <g transform="translate(85.855 11.903)">
      <mask id="blanton-turner-d" fill="#fff">
        <use xlink:href="#blanton-turner-c"/>
      </mask>
      <path fill="#949DB4" d="M9.91335662,6.14098684 C9.91203947,3.9275 8.41302632,2.31138158 6.33407895,2.28243421 C4.27026316,2.25315789 2.72815789,3.86072368 2.69131579,6.07947368 C2.65546053,8.23671053 4.20743421,9.88572368 6.29427632,9.90842105 C8.41598684,9.93111842 9.915,8.37059211 9.91335662,6.14098684 M6.34032895,12.1712752 C2.87421053,12.1804605 0.331447368,9.66302632 0.303157895,6.19394737 C0.274539474,2.73539474 2.81236842,0.15875 6.26302632,0.142219966 C9.78243421,0.125197368 12.4673026,2.76467105 12.4357237,6.21072368 C12.4048026,9.61631579 9.80184211,12.1613816 6.34032895,12.1712752" mask="url(#blanton-turner-d)"/>
    </g>
    <path fill="#949DB4" d="M56.6251645 22.1009211C58.2791118 22.0242763 59.5751645 21.0729605 59.4751645 20.0065132 59.3922697 19.1242763 57.8679276 18.3186842 56.4235197 18.3996053 55.2162829 18.4673684 54.4070724 19.0670395 54.4189145 20.3015789 54.4320724 21.6703289 55.3669408 22.1397368 56.6251645 22.1009211M59.4383224 17.4917105C59.5741776 16.0930263 59.7110197 14.8815132 58.4287829 14.2548684 57.1991776 13.6542105 55.9514803 13.7775658 54.934375 14.7571711 54.1215461 15.5400658 53.1603618 15.1394079 52.7554276 14.6473026 52.2889803 14.0811842 53.1702303 13.5492763 53.6514803 13.1644079 55.2866776 11.8568421 58.3672697 11.6841447 60.1912829 12.7042105 61.4761513 13.4229605 61.7199013 14.6423684 61.7738487 15.9130921 61.8412829 17.4926974 61.8106908 19.0778947 61.7860197 20.6598026 61.7754934 21.3446711 61.8583882 21.8607895 62.7353618 21.7571711 63.6268092 21.6515789 63.6636513 22.2380921 63.6814145 22.8956579 63.7034539 23.6953289 63.2024671 23.8660526 62.6222039 23.7071711 61.5919408 23.4246053 60.1814145 24.5473026 59.5041118 22.8568421 59.3949013 22.5841447 59.0383224 22.9219737 58.8324013 23.0575 58.0879934 23.5486184 57.2817434 23.8621053 56.3893092 23.9298684 54.3731908 24.0821711 52.5422697 22.7433553 52.2972039 20.945 52.0185855 18.8996053 53.2449013 17.2430263 55.3429276 16.7706579 56.7491776 16.4538816 58.0324013 16.8611184 59.4383224 17.4917105M143.464375 12.8745066C143.485099 15.3774671 143.528191 17.8804276 143.515033 20.3830592 143.511086 21.2412829 143.551875 21.915625 144.700559 21.7649671 145.500559 21.6600329 145.537401 22.2254934 145.551546 22.8152961 145.568322 23.5248355 145.211086 23.9004934 144.560099 23.7050987 143.455164 23.3728618 141.936086 24.6458882 141.187401 22.815625 141.064704 22.5159539 140.616678 22.9261513 140.348914 23.0685855 139.621283 23.4554276 138.874572 23.7791118 138.052204 23.8952303 135.995296 24.1856908 134.615362 23.1442434 134.507138 21.0876645 134.412401 19.2958882 134.403191 17.4932566 134.478849 15.7004934 134.519309 14.7317434 134.225559 14.2692434 133.251217 14.2764803 133.119967 14.1300987 132.988717 13.9840461 132.857796 13.8376645L132.857796 12.8712171C132.983454 12.7399671 133.109112 12.6090461 133.234441 12.4777961 134.211086 12.4777961 135.18773 12.478125 136.164375 12.478125 136.295954 12.6103618 136.427204 12.7425987 136.559112 12.8745066 136.579836 15.165625 136.585099 17.4574013 136.629507 19.7481908 136.649243 20.7909539 136.613059 21.9399671 138.121283 22.0034539 139.617664 22.0669408 141.31273 20.8314145 141.349243 19.6416118 141.388059 18.3870066 141.250888 17.1185855 141.388388 15.8784539 141.533125 14.5810855 140.93477 14.2429276 139.828849 14.2764803 139.689704 14.1277961 139.551217 13.9794408 139.412072 13.8310855L139.412072 12.878125C139.545296 12.7445724 139.678191 12.6113487 139.811743 12.4777961 140.89727 12.4777961 141.983454 12.478125 143.069638 12.478125 143.201217 12.6103618 143.332796 12.7425987 143.464375 12.8745066M18.8106579 11.8945724C18.8109868 10.4800987 18.8530921 9.06365132 18.7961842 7.65148026 18.7583553 6.71759868 19.1340132 6.34325658 20.0366447 6.42615132 20.0905921 6.43108553 20.1455263 6.42582237 20.2001316 6.42615132 24.3090132 6.484375 23.5527632 5.90542763 23.6165789 9.71694079 23.6521053 11.8383224 23.5909211 13.9616776 23.6369737 16.0824013 23.6583553 17.0666118 23.4458553 17.5409539 22.2945395 17.5550987 18.8096711 17.5975329 18.8103289 17.6488487 18.8103289 14.1797697 18.8103289 13.4179276 18.8103289 12.6560855 18.8106579 11.8945724M150.875658 14.013125C151.788158 12.6532566 153.083224 12.2229934 154.579276 12.1940461 155.217105 12.181875 155.702632 12.2387829 155.576316 13.0299013 155.487829 13.5841776 155.948684 14.4476645 154.807895 14.4706908 153.478947 14.4970066 152.073026 14.4973355 151.400329 15.9239803 150.598355 17.6243092 150.917105 19.4729934 151.001316 21.2565461 151.038487 22.0447039 151.884211 21.6917434 152.357566 21.6887829 153.104934 21.6845066 153.455592 21.888125 153.455263 22.6993092 153.455263 23.5101645 153.109539 23.7154276 152.357895 23.6956908 150.715461 23.6522697 149.071053 23.6624671 147.427961 23.6907566 146.713816 23.7032566 146.314145 23.5525987 146.313156 22.7095066 146.312171 21.8963487 146.645066 21.6065461 147.389474 21.7177303 148.449013 21.8752961 148.702303 21.3805592 148.648355 20.4118092 148.575658 19.1045724 148.623355 17.7900987 148.632566 16.4789145 148.639803 15.3486513 148.946382 14.0532566 146.997039 14.3697039 146.292434 14.4841776 146.333882 13.8144408 146.333882 13.3220066 146.333882 12.8795724 146.298684 12.3877961 146.940132 12.3746382 147.925658 12.3545724 148.914145 12.3197039 149.896053 12.3782566 150.830592 12.4338487 150.265132 13.3910855 150.875658 14.013125"/>
    <g transform="translate(184.868 11.903)">
      <mask id="blanton-turner-f" fill="#fff">
        <use xlink:href="#blanton-turner-e"/>
      </mask>
      <path fill="#949DB4" d="M4.34694079,2.48786184 C5.34167763,0.915822368 6.676875,0.291480263 8.38608553,0.283881122 C9.20648026,0.280296053 9.46898026,0.570756579 9.41766447,1.32470395 C9.37786184,1.90759868 9.52884868,2.45529605 8.58970395,2.59115132 C5.08608553,3.09838816 4.98082237,3.25661184 4.71898026,6.76680921 C4.67851974,7.31023026 4.71141447,7.85957237 4.65713816,8.40069079 C4.55648026,9.40661184 4.84200658,9.97799342 5.99726974,9.81911184 C6.67523026,9.72601974 7.26075658,9.72404605 7.24825658,10.7628618 C7.23674342,11.7154934 6.80286184,11.8085855 6.04167763,11.7904934 C4.45615132,11.7526645 2.86865132,11.7569408 1.28279605,11.7885197 C0.526546053,11.8036513 0.0370723684,11.7085855 0.0551644737,10.7529934 C0.0712828947,9.88753289 0.510756579,9.70726974 1.19496711,9.81779605 C2.39200658,10.0112171 2.54463816,9.37042763 2.50944079,8.39805921 C2.45483553,6.87240132 2.44726974,5.34082237 2.51240132,3.81582237 C2.55384868,2.84805921 2.29003289,2.35069079 1.23838816,2.49838816 C0.418980263,2.61319079 0.0577960526,2.29246711 0.0571381579,1.41088816 C0.0561513158,0.394440789 0.683125,0.431611842 1.36700658,0.444769737 C1.64036184,0.450032895 1.91667763,0.470427632 2.18740132,0.441151316 C3.58740132,0.289177632 4.74463816,0.404309211 4.34694079,2.48786184" mask="url(#blanton-turner-f)"/>
    </g>
    <path fill="#949DB4" d="M48.7006908 7.940625C48.7197697 12.0287829 48.7474013 16.1172697 48.7503618 20.2054276 48.7510197 21.0600329 48.6401645 21.8685855 49.9536513 21.7396382 50.6950987 21.6669408 50.5546382 22.3412829 50.5825987 22.809375 50.6177961 23.3955592 50.4079276 23.7366776 49.7516776 23.7292351 48.2756908 23.7123355 46.799375 23.7116776 45.3233882 23.728125 44.661875 23.7353618 44.4855592 23.3909539 44.4997039 22.8044408 44.5135197 22.2373355 44.4694408 21.6222039 45.2997039 21.7228618 46.4046382 21.8567434 46.5352303 21.2728618 46.524375 20.3669408 46.4865461 17.1504934 46.4950987 13.9330592 46.5191118 10.7159539 46.5253618 9.90608553 46.4349013 9.29786184 45.4000329 9.39523026 44.6622039 9.46496711 44.4983882 9.03601974 44.497399 8.378125 44.4960855 7.52417763 45.0503618 7.59523026 45.6052961 7.60476974 46.5339145 7.62088816 47.4622039 7.63667763 48.3908224 7.65246711 48.4941118 7.74851974 48.5974013 7.84457237 48.7006908 7.940625M82.1611513 8.89615132C82.5940461 9.52641447 82.4144408 10.1438487 82.4052303 10.7188487 82.3900987 11.6570066 82.3581908 12.4958224 83.7081908 12.3747697 84.4335197 12.3096382 84.5970066 12.798125 84.5647697 13.4415461 84.5325329 14.0823355 84.3529276 14.5112829 83.6081908 14.4030592 82.5453618 14.2484539 82.3170724 14.7872697 82.3496382 15.7316776 82.4042434 17.3102961 82.4262829 18.8971382 82.3236513 20.4714803 82.2621382 21.4191776 82.6085197 21.8264145 83.4835197 21.7974671 84.2493092 21.7721382 84.5384539 22.0500987 84.5802303 22.8290461 84.625625 23.6852961 84.1104934 23.8047039 83.4924013 23.9211513 81.5351645 24.2899013 80.2674013 23.335625 80.2121382 21.3524013 80.1585197 19.4461513 80.1979934 17.5369408 80.1973355 15.6290461 80.1973355 15.0250987 80.2868092 14.3718092 79.3502961 14.3984539 78.6101645 14.4198355 78.6476645 13.8895724 78.6532566 13.3826645 78.6585197 12.8908882 78.5716776 12.3500987 79.3299013 12.3533882 79.8226645 12.3553618 80.2371382 12.2089803 80.1815461 11.6264145 80.0368092 10.1089803 81.3081908 9.70042763 82.1611513 8.89615132M24.0301316 21.5029605C23.9982237 24.2046053 24.3580921 23.8575658 21.3646711 23.8644737 18.6156579 23.8713816 19.0495395 24.0809211 19.0455921 21.1621711 19.0419737 18.7210526 18.7597368 19.1707237 22.0314474 19.1394737 24.0301316 19.1203947 24.0304605 19.1378289 24.0301316 21.5029605M8.75207237 17.8050329C6.02476974 17.7750987 6.354375 18.1277303 6.35404605 15.3175329 6.35338816 12.6734539 6.07378289 13.1040461 9.17476974 13.0908882 11.6691776 13.0806908 11.3191776 12.8563487 11.3274013 15.6556908 11.3346382 18.2086513 11.4922039 17.7642434 8.75207237 17.8050329"/>
    <path fill="#949DB4" d="M48.7006908 7.940625C48.5974013 7.84457237 48.4941118 7.74851974 48.3908224 7.65246711 48.6066118 7.628125 48.7210855 7.71200658 48.7006908 7.940625M136.559046 12.8745066C136.427467 12.7425987 136.295888 12.6103618 136.164309 12.478125 136.441941 12.465625 136.575822 12.5952303 136.559046 12.8745066M139.811579 12.4779276C139.678355 12.6111513 139.545132 12.7447039 139.411908 12.8779276 139.399079 12.5996382 139.532303 12.4664145 139.811579 12.4779276M143.464375 12.8745066C143.332796 12.7425987 143.201217 12.6103618 143.069638 12.478125 143.34727 12.465625 143.481151 12.5952303 143.464375 12.8745066M131.249638 13.5058882C131.344046 13.3289145 131.449638 13.3078618 131.569375 13.4831908 131.462467 13.4907566 131.356217 13.4983224 131.249638 13.5058882M132.85773 13.8377303C132.988651 13.9837829 133.119901 14.1301645 133.251151 14.2765461 132.943586 14.2880592 132.844901 14.1127303 132.85773 13.8377303M139.411941 13.8309868C139.551086 13.9793421 139.689901 14.1276974 139.829046 14.2763816 139.517862 14.2885526 139.402401 14.1181579 139.411941 13.8309868M182.85773 18.5067763C182.962993 18.2488816 183.080428 18.2130263 183.214638 18.4873684 183.095888 18.4939474 182.976809 18.5001974 182.85773 18.5067763M133.234572 12.4779276C133.108914 12.6088487 132.983257 12.7397697 132.857599 12.8710197 132.842467 12.6055592 132.96023 12.4670724 133.234572 12.4779276"/>
  </g>
</svg>
