<svg xmlns="http://www.w3.org/2000/svg" width="80" height="20" viewBox="0 0 80 20"><g><g><path fill="#fff" d="M6.168 12.45c-.03.08-.04.809-.024 1.621l.03 1.478.841.033c.897.034 1.295-.094 1.716-.549.18-.196.22-.387.22-1.048 0-.916-.166-1.349-.595-1.546-.401-.184-2.117-.175-2.188.012zm42.551-3.027c-.386.446-.413.663-.413 3.356 0 2.612.007 2.693.25 3.056.217.326.316.378.773.408.292.019.593-.024.68-.096.21-.175.232-6.575.024-6.784-.207-.208-1.117-.166-1.314.06zm13.894-.907c-.41.222-.552.661-.514 1.595l.032.813H64l.035-.492c.06-.84-.08-1.43-.42-1.77-.346-.344-.574-.377-1-.146zM6.168 6.518c-.03.079-.041.71-.024 1.4l.03 1.258.815.033c.47.018.912-.021 1.047-.094.325-.175.697-.885.697-1.328 0-.38-.328-1.031-.64-1.27-.249-.192-1.853-.191-1.925 0zM32.484 4.86l2.871.03v14.844h-5.792l-.029-7.312c-.015-4.022-.004-7.376.025-7.452.041-.109.686-.133 2.925-.11zm-14.208 0l2.872.03.028 5.156c.033 5.977-.042 5.588 1.058 5.535l.662-.033.055-5.33.054-5.329h5.793v14.835h-5.793l-.032-.741c-.018-.409-.072-.742-.12-.742-.106 0-.612.595-.857 1.008a1.25 1.25 0 0 1-.457.425c-.155.072-.368.175-.472.228-.104.053-.828.097-1.607.097-1.377 0-1.433-.01-1.97-.328-1.208-.716-1.687-1.413-2-2.914-.116-.552-.245-11.509-.14-11.785.043-.111.666-.135 2.926-.112zM0 1.754l4.89.042c5.729.05 6.086.089 7.538.825 1.518.771 2.214 2.019 2.214 3.972 0 1.854-.493 2.655-2.151 3.502-.253.129-.56.235-.683.235s-.223.047-.223.106c0 .144.37.333.652.333.357 0 1.241.495 1.71.957.604.595.685.715.923 1.368.27.743.294 2.648.043 3.372-.432 1.248-.817 1.717-1.832 2.233-1.717.87-2.619.981-8.518 1.04L0 19.785zM50.164 0h6.01v4.89c0 2.735.043 4.89.097 4.89.052 0 .147-.185.209-.412.337-1.234 1.09-2.574 1.838-3.27.764-.71 1.94-1.294 3.048-1.514.677-.135 2.62-.138 3.497-.005.686.104 2.033.744 2.484 1.18.635.617 1.136 1.476 1.384 2.373.075.272.182.646.238.832.056.185.102.618.102.961 0 .344.048.624.107.624.067 0 .119-1.068.137-2.83l.03-2.829h5.792l.031 1.017c.017.559.073 1.016.124 1.016.05 0 .303-.358.56-.797l.598-1.016c.237-.395 1.686-.678 2.84-.554l.71.077V5.81c0 .648-.045 1.225-.1 1.282-.056.058-.129.451-.162.874-.034.423-.1 1.165-.145 1.648l-.085.88-.546-.035c-1.168-.074-2.862-.05-3.279.047l-.437.101-.055 4.559-.054 4.558h-5.793l-.054-2.802-.055-2.802H62.35l-.033.447c-.087 1.19 1.55 1.486 4.298.777.36-.093.91-.202 1.227-.243l.573-.075v1.988c0 1.826-.016 1.997-.203 2.098-.345.185-1.845.667-2.077.667-.121 0-.25.05-.288.11-.041.067-.91.11-2.24.11-1.331 0-2.2-.043-2.24-.11-.038-.06-.176-.11-.308-.111-.29-.002-1.045-.26-1.588-.542-1.351-.703-2.623-2.343-2.966-3.825-.073-.317-.177-.577-.23-.577-.052 0-.11 1.1-.125 2.445l-.03 2.445-2.61.03c-1.832.02-2.653-.008-2.759-.096-.09-.075-.15-.34-.15-.661 0-.31-.05-.536-.118-.536-.163 0-.947.836-1.146 1.221l-.162.317h-1.521c-.896 0-1.549-.045-1.588-.11-.038-.06-.156-.11-.263-.11-.252 0-1.497-.808-1.88-1.221-.486-.523-1.27-2.257-1.486-3.284-.238-1.13-.265-4.788-.042-5.605.074-.272.176-.692.226-.934.419-2.03 1.876-3.735 3.554-4.157.588-.148 2.408-.14 2.95.013.241.068.573.156.738.196l.3.073zm-14.1 0h5.914l-.027 9.863-.029 9.862H36.12l-.028-9.862zm-6.56 0h5.91l-.059 4.12h-5.792l-.03-2.06z"/></g></g></svg>