<svg xmlns="http://www.w3.org/2000/svg" width="116" height="20" viewBox="0 0 116 20"><g><g><g><g><path fill="#fff" d="M15.485 2.28c.42-.72 1.08-1.38 1.92-1.8 1.32-.6 3.06-.3 4.2.6 1.02.9 1.62 2.22 1.32 3.66.3 0 .48-.18.78-.3 1.62-.48 3.3 0 4.38 1.38.78 1.02 1.02 2.52.48 3.66-.18.6-.6 1.08-1.08 1.62l.12.12c1.5.12 3 1.2 3.48 2.7.48 1.5.12 3-1.02 4.08-.9.9-1.98 1.2-3.18 1.08H4.325c-1.92 0-3.3-.78-3.96-2.4-.6-1.38-.3-3.18.78-4.26.72-.72 1.62-1.02 2.58-1.2-1.08-1.02-1.62-2.4-1.32-3.9.12-1.08 1.08-2.4 2.28-2.82 1.02-.42 2.4-.3 3.36.18-.3-1.62.42-3.06 1.8-3.96 1.2-.78 3.06-.78 4.26.12.6.36 1.08.96 1.38 1.44z"/></g><g><g><path fill="#203f7f" fill-opacity=".74" d="M21.84 2.88c-.18-.42-.48-.78-.84-1.08-.9-.78-2.4-.9-3.48-.3-1.02.48-1.62 1.62-1.62 2.7h1.32c.12.12.18.12.3.18-.54.42-1.56.78-1.32 1.62l1.38 8.88 3.9-8.76c.6-1.02.9-2.22.36-3.24z"/></g><g><path fill="#203f7f" fill-opacity=".74" d="M13.496 14.761l1.62-10.14c.12-.72-.12-1.38-.42-1.98-.3-.66-.9-1.08-1.5-1.38-1.08-.48-2.52-.18-3.3.6-.78.78-1.2 1.98-.78 3.18l3.96 8.88.42.84z"/></g><g><path fill="#203f7f" fill-opacity=".74" d="M27.66 6.841c.48.9.42 2.28-.18 3.06-.42.6-1.02.9-1.5 1.32l-8.28 5.7.12-.3 4.38-9.84c.72-1.2 1.92-1.8 3.18-1.62.9.24 1.8.84 2.28 1.68z"/></g><g><path fill="#203f7f" fill-opacity=".74" d="M4.258 10.558l9.18 6.3h.12l-4.56-10.08a3.235 3.235 0 0 0-3.9-1.38c-.9.42-1.62 1.2-1.8 2.1-.48 1.14-.06 2.34.96 3.06z"/></g><g><path fill="#203f7f" fill-opacity=".74" d="M29.64 17.157c.72-.78.78-2.22.42-3.06-.3-.72-.9-1.32-1.62-1.62-.9-.42-2.1-.3-2.88.18l-8.16 5.64h9.78c.96 0 1.74-.36 2.46-1.14z"/></g><g><path fill="#203f7f" fill-opacity=".74" d="M13.678 18.297l-8.16-5.76c-.78-.48-1.98-.6-2.88-.18-.72.3-1.32.9-1.62 1.62-.48 1.02-.3 2.28.42 3.06.6.78 1.5 1.2 2.52 1.2z"/></g></g></g><g><g><path fill="#fff" d="M49.308 10.991c-.336-1.44-1.44-1.824-2.784-1.92-4.224-.384-4.944 2.784-4.944 4.128 0 2.304.624 4.128 4.8 4.128.816 0 2.88-.816 2.88-2.064h6c-.24 3.84-6.624 4.704-9.408 4.704-5.76 0-10.704-1.056-10.464-6.768.144-4.08 3.984-6.912 11.616-6.72 4.224.096 8.304 1.44 8.304 4.464h-6z"/></g><g><path fill="#fff" d="M109.108 10.99c-.336-1.44-1.44-1.825-2.784-1.92-4.224-.385-4.944 2.783-4.944 4.08 0 2.303.624 4.127 4.8 4.127.816 0 2.88-.816 2.88-2.064h6c-.24 3.84-6.624 4.704-9.408 4.704-5.76 0-10.704-1.056-10.464-6.768.144-4.08 3.984-6.912 11.616-6.72 4.224.096 8.352 1.44 8.352 4.464h-6.048v.096z"/></g><g><path fill="#fff" d="M56.41 6.77h7.728l6.624 9.264h.096V6.77h4.944v12.816H68.41l-6.912-9.264h-.096v9.264H56.41V6.77z"/></g><g><path fill="#fff" d="M82.81 16.936h.048v-2.678h2.016c2.16 0 3.504.383 3.504 1.435 0 .956-1.104 1.291-3.984 1.291H82.81zm.048-5.126V9.17h2.016c2.112 0 3.168.384 3.168 1.44s-1.248 1.2-3.648 1.2zm-5.568 7.728h9.408c5.088 0 7.632-1.2 7.632-3.504 0-1.104-1.152-3.024-4.08-3.168 2.496-.384 3.6-1.824 3.6-2.928 0-1.872-2.592-3.168-7.152-3.168H77.29z"/></g></g></g></g></svg>