<svg xmlns="http://www.w3.org/2000/svg" width="275" height="100" viewBox="0 0 275 100">
  <g fill="#949DB4" transform="translate(65 32)">
    <path d="M130.33,3.61 C130.764113,4.36640896 131.065151,5.19172824 131.22,6.05 C131.27,6.3 131.44,6.24 131.59,6.24 L138.35,6.24 L138.35,11.13 C138.35,11.24 138.35,11.34 138.35,11.44 L138.35,29.21 C138.35,29.52 138.35,29.83 138.35,30.14 L138.35,30.35 C138.23,30.35 138.12,30.35 138.01,30.35 C136.79,30.35 135.57,30.35 134.35,30.35 C125.603333,30.35 116.853333,30.35 108.1,30.35 L107.71,30.35 L107.71,29.64 C107.71,29.49 107.71,29.34 107.71,29.19 L107.71,6.19 L115.08,6.19 C115.18,6.19 115.34,6.12 115.36,6.04 C115.56,5.22 115.75,4.39 115.94,3.57 L117.18,3.57 C116.88567,4.41444015 116.691017,5.29037924 116.6,6.18 L129.9,6.18 C129.724265,5.23788235 129.341745,4.34647386 128.78,3.57 L130.31,3.57 M109.31,28.44 L136.5,28.44 L136.5,9.14 L109.32,9.14 L109.31,28.44 Z M115.31,6.99 C115.099473,7.09827291 114.9452,7.2912923 114.885986,7.52050481 C114.826773,7.74971732 114.868256,7.99330711 115,8.19 C115.129794,8.39889998 115.34194,8.54310588 115.583941,8.58693294 C115.825943,8.63076 116.075188,8.57011319 116.27,8.42 C116.458674,8.28729598 116.581819,8.08044544 116.608549,7.85133072 C116.635279,7.622216 116.563058,7.39257268 116.41,7.22 C115.59,7.54 115.34,7.49 115.31,6.99 M130.19,7.56 C130.103964,8.02012482 130.401734,8.46455721 130.86,8.56 C131.283814,8.65145656 131.710282,8.41689928 131.86,8.01 C132.001207,7.62600829 131.833894,7.19700223 131.47,7.01 C131.47,7.42 131.02,7.6 130.2,7.57"/>
    <path d="M109.32 9.14L136.51 9.14 136.51 28.48 109.32 28.48 109.32 9.14zM110 27.83L135.86 27.83 135.86 9.83 110 9.83 110 27.83zM115.27 7C115.27 7.5 115.55 7.55 116.37 7.23 116.523058 7.40257268 116.595279 7.632216 116.568549 7.86133072 116.541819 8.09044544 116.418674 8.29729598 116.23 8.43 116.041398 8.56958078 115.804413 8.62706438 115.57282 8.58940697 115.341227 8.55174956 115.134663 8.42214413 115 8.23 114.868256 8.03330711 114.826773 7.78971732 114.885986 7.56050481 114.9452 7.3312923 115.099473 7.13827291 115.31 7.03M130.15 7.6C130.97 7.6 131.37 7.45 131.42 7.04 131.783894 7.22700223 131.951207 7.65600829 131.81 8.04 131.660282 8.44689928 131.233814 8.68145656 130.81 8.59 130.351734 8.49455721 130.053964 8.05012482 130.14 7.59"/>
    <path d="M125.92 16.47L127.82 16.47 127.82 17.69 126 17.69 126 18.52 127.45 18.52 127.45 19.82 122.17 19.82 122.17 18.53 123.6 18.53 123.6 17.7 117.79 17.7C117.79 17.3 117.79 16.94 117.79 16.58 117.79 16.49 117.88 16.4 117.95 16.34 119.65 14.84 121.36 13.35 123.08 11.87 123.158134 11.7919946 123.260321 11.7426625 123.37 11.73L125.96 11.73 125.92 16.47zM123.55 13.6L120.39 16.45 123.55 16.45 123.55 13.6zM119.59 25L119.59 25.85C119.21 25.85 118.84 25.85 118.48 25.85 118.39 25.85 118.29 25.73 118.23 25.65L117.06 24 116.81 23.67 116.81 25 117.2 25 117.2 25.79 115.28 25.79 115.28 25 115.79 25 115.79 21.63 115.28 21.63 115.28 20.87C116.28 20.87 117.19 20.81 118.14 20.87 118.886402 20.9850377 119.445141 21.6151939 119.47 22.37 119.555821 23.0978244 119.110082 23.7832537 118.41 24L118.25 24.07C118.68 24.43 118.77 25.19 119.59 24.99M116.81 23.49C117.14461 23.4764502 117.478348 23.4464138 117.81 23.4 118.19467 23.3056377 118.468901 22.9659192 118.48 22.57 118.513043 22.1893453 118.288034 21.8334225 117.93 21.7 117.551965 21.6514897 117.17113 21.6281051 116.79 21.63L116.81 23.49zM125.41 22.09C125.41 22.23 125.41 22.35 125.41 22.52 125.711955 22.1281458 126.19942 21.9263048 126.69 21.99 127.048992 21.9977858 127.38984 22.1493259 127.636115 22.41064 127.882389 22.671954 128.013483 23.0211765 128 23.38 128 23.92 128 24.46 128 25.02L128.46 25.02 128.46 25.81 126.6 25.81 126.6 25.02 127.05 25.02C127.05 24.48 127.05 23.95 127.05 23.43 127.003442 23.0671546 126.685344 22.8013472 126.32 22.82 125.932419 22.7588527 125.565831 23.015023 125.49 23.4 125.42 23.92 125.43 24.45 125.41 24.99L125.89 24.99 125.89 25.78 124.08 25.78 124.08 25 124.53 25 124.53 22.9 124.08 22.9 124.08 22.12 125.41 22.09zM123.72 24.3L120.72 24.3C120.739998 24.6734812 120.966742 25.0045834 121.307737 25.1582415 121.648732 25.3118996 122.04697 25.2624251 122.34 25.03 122.696128 24.7936089 123.127161 24.6974279 123.55 24.76 123.219944 25.6664417 122.251674 26.1701159 121.32 25.92 120.27983 25.6672219 119.623103 24.6402587 119.83 23.59 119.820009 22.7821461 120.297048 22.0476199 121.039143 21.7282087 121.781237 21.4087975 122.642626 21.5672395 123.222491 22.1298091 123.802356 22.6923786 123.986801 23.5485766 123.69 24.3M120.69 23.62L122.89 23.62C122.754366 23.0887603 122.268016 22.7229586 121.72 22.74 121.228141 22.7785007 120.820724 23.1370273 120.72 23.62"/>
    <polygon points="129.24 22.88 128.65 22.88 128.65 22.07 129.23 22.07 129.23 20.79 130.11 20.79 130.11 22.05 130.73 22.05 130.73 22.88 130.14 22.88 130.14 25 130.79 25 130.79 25.82 129.24 25.82"/>
    <path d="M58.16 17.79C58.7924919 16.4272721 60.004217 15.421173 61.46 15.05 63.7448207 14.4306864 66.165007 15.3865583 67.41 17.4 67.7932914 18.0882329 67.9962537 18.862242 68 19.65 68 21.74 68 23.82 68 25.9L68 26.34 69.8 26.34 69.8 29.34 63 29.34 63 26.34 64.76 26.34C64.7644582 26.3001242 64.7644582 26.2598758 64.76 26.22 64.76 24.41 64.76 22.6 64.76 20.79 64.8568876 19.5266133 64.000603 18.3877547 62.76 18.13 61.8786086 17.8652421 60.9239795 18.0314932 60.18398 18.5786205 59.4439806 19.1257477 59.0052177 19.9897173 59 20.91 58.94 22.7 59 24.5 59 26.34L60.78 26.34 60.78 29.34 53.92 29.34 53.92 26.34 55.68 26.34C55.68 26.28 55.74 26.25 55.74 26.22 55.74 24.37 55.74 22.51 55.67 20.66 55.6974277 19.3663984 54.7516869 18.2573023 53.47 18.08 52.632352 17.9257297 51.7689685 18.1423089 51.1033137 18.6736818 50.4376589 19.2050547 50.0351624 19.9989906 50 20.85 49.9651011 21.1220386 49.9450713 21.3957788 49.94 21.67L49.94 26.34 51.76 26.34 51.76 29.34 44.92 29.34 44.92 26.34 46.69 26.34 46.69 18.24 44.91 18.24 44.91 15.24 49.65 15.24 49.65 17.17C50.5872331 15.6371613 52.3020277 14.7560672 54.0939421 14.8866179 55.8858564 15.0171687 57.4548359 16.1375037 58.16 17.79M43.8800074 22.27C43.8637491 25.2800402 42.0353756 27.9837176 39.2478707 29.1196855 36.4603659 30.2556533 33.2630195 29.6000642 31.1474897 27.4587702 29.03196 25.3174762 28.4151211 22.1124284 29.5847469 19.3388781 30.7543728 16.5653278 33.4799836 14.7698148 36.49 14.79 40.588191 14.8338881 43.8857215 18.171578 43.8800074 22.27M36.28 25.86C37.7317033 25.9362665 39.0853933 25.1271066 39.7056236 23.8123543 40.325854 22.4976021 40.0894656 20.9383276 39.1074235 19.8664822 38.1253814 18.7946369 36.5926895 18.4230568 35.2288207 18.9261683 33.864952 19.4292798 32.9407295 20.7071801 32.89 22.16 32.841158 23.1021777 33.1725777 24.0245266 33.809915 24.7201455 34.4472523 25.4157643 35.3371549 25.8264221 36.28 25.86M85.14 25.22C84.5342078 26.7427908 83.426364 28.0129302 82 28.82 81.2494863 29.2373802 80.4351981 29.5279561 79.59 29.68 75.816873 30.3007453 72.1910361 27.9484999 71.22 24.25 70.6645975 22.2192894 70.9870769 20.0486969 72.1088553 18.2671607 73.2306336 16.4856246 75.0486924 15.2567523 77.12 14.88 79.1359681 14.5370239 81.2034955 15.0529697 82.8219562 16.3029077 84.440417 17.5528457 85.4622387 19.4228056 85.64 21.46 85.6599546 21.8163876 85.6599546 22.1736124 85.64 22.53 85.64 22.86 85.57 23.19 85.53 23.53L74.05 23.53C74.23 23.96 74.35 24.34 74.53 24.69 75.2244209 25.9404553 76.4915639 26.7673003 77.9157932 26.8993215 79.3400226 27.0313428 80.7375603 26.4515047 81.65 25.35 81.7135938 25.2762293 81.803086 25.2296934 81.9 25.22L85.14 25.22M82.62 21C82.0591606 18.9423813 80.12829 17.5631879 78 17.7 76.1241917 17.8434018 74.5519024 19.1738004 74.1 21L82.62 21zM89.42 28.3L89.42 29.37 87 29.37 87 25.29 90.31 25.29C90.31 25.48 90.38 25.66 90.43 25.83 90.6424751 26.5633546 91.2199888 27.134107 91.9557946 27.3379314 92.6916005 27.5417557 93.4804728 27.3495035 94.04 26.83 94.4168205 26.4859274 94.6001538 25.9784326 94.5302285 25.4729723 94.4603032 24.9675121 94.1460785 24.5288494 93.69 24.3 93.0847089 24.0515768 92.4632868 23.8444361 91.83 23.68 90.8970896 23.3931555 89.9792548 23.0593974 89.08 22.68 87.7105704 22.0962748 86.8545188 20.7161916 86.94 19.23 86.8787213 17.7020429 87.7206233 16.2805992 89.09 15.6 90.5835892 14.7581849 92.3893639 14.6801576 93.95 15.39 94.3053392 15.5785973 94.6404218 15.8031027 94.95 16.06L94.95 15.25 97.3 15.25 97.3 19.08 94.19 19.08C94.1496314 18.4467732 93.7658529 17.8864567 93.19 17.62 92.5463896 17.3050215 91.7834518 17.3584272 91.19 17.76 90.8149562 18.0016656 90.5810835 18.4108212 90.5631718 18.856623 90.5452601 19.3024248 90.7455534 19.7290245 91.1 20 91.5816386 20.2851894 92.0996789 20.5038428 92.64 20.65 93.64 20.99 94.73 21.21 95.72 21.65 99.06 23.01 98.72 27.25 96.4 28.83 94.5376982 30.0444192 92.1491148 30.1024885 90.23 28.98 89.9489976 28.7738587 89.6786492 28.5535748 89.42 28.32M2.7 30.92L2.7 27.86 5.36 27.86 5.36 14.75 2.71 14.75 2.71 13.23 0 13.23.5 12.81 14.68 1.18C14.768827 1.06243278 14.9076491.993328431 15.055.993328431 15.2023509.993328431 15.341173 1.06243278 15.43 1.18 16.53 2.18 17.65 3.12 18.77 4.07 18.9281076 4.19360344 19.1197478 4.26677517 19.32 4.28 20.4 4.28 21.48 4.28 22.56 4.28L22.94 4.28 22.94 5.2C22.9700247 5.58942213 22.9700247 5.98057787 22.94 6.37 22.7950487 7.235687 23.1908827 8.10256346 23.94 8.56 25.61 9.91 27.21 11.36 28.84 12.77L29.16 13.06 27.05 13.06 27.05 14.7 24.4 14.7 24.4 27.84 27 27.84 27 30.91 16.94 30.91 16.94 27.86 19.52 27.86 19.52 23.07 10.23 23.07 10.23 27.84 12.83 27.84 12.83 30.92 2.7 30.92zM10.23 19.34L19.54 19.34 19.54 14.75 16.91 14.75 16.91 13.19 12.83 13.19 12.83 14.75 10.23 14.75 10.23 19.34zM130.33 3.61L104.9 3.61 104.9 32.25C104.9 32.35 104.9 32.45 104.9 32.56 105.064783 33.6143712 104.809901 34.6913373 104.19 35.56L104.03 35.73C103.66 35.26 103.29 34.81 102.94 34.34 102.883015 34.2184433 102.862188 34.0830639 102.88 33.95L102.88 3.62 101.74 3.62 101.09 1.62 102.87 1.62 102.87.65 104.87 0 104.87 1.58 141.15 1.58C140.93 2.28 140.72 2.93 140.5 3.58L130.33 3.61zM46.13 8.36C46.21 8.17 46.29 7.99 46.36 7.81L48.25 2.89C48.33 2.67 48.42 2.58 48.66 2.59 49.49 2.59 50.32 2.59 51.15 2.59L51.47 2.59 51.47 3.94 50.6 3.94 50.6 9.53 51.46 9.53 51.46 10.88 48.11 10.88 48.11 9.56 49 9.56 49 4.92C48.85 5.29 48.73 5.6 48.62 5.92 48 7.47 47.41 9 46.84 10.59 46.8229077 10.6895305 46.7669001 10.7781638 46.6843446 10.8363279 46.6017892 10.8944919 46.4994768 10.9174023 46.4 10.9 45.6 10.9 45.6 10.9 45.31 10.14L43.45 5.31C43.4106711 5.19597151 43.3495356 5.09068263 43.27 5L43.27 9.52 44.19 9.52 44.19 10.87 40.78 10.87 40.78 9.55 41.65 9.55 41.65 4 40.77 4 40.77 2.6 41.27 2.6C42.02 2.6 42.77 2.6 43.51 2.6 43.6284163 2.58602864 43.7474327 2.62071506 43.8398015 2.69611817 43.9321703 2.77152129 43.9899816 2.88118393 44 3 44.67 4.78 45.35 6.54 46 8.31 46 8.31 46 8.36 46.08 8.41M91.87 5.62L91.87 6.68C91.87 7.53 91.87 8.38 91.87 9.23 91.87 9.48 91.95 9.56 92.18 9.55 92.41 9.54 92.59 9.55 92.81 9.55L92.81 10.88 89.42 10.88 89.42 9.56 90.24 9.56 90.24 4 89.42 4 89.42 2.6C90.16 2.6 90.88 2.6 91.6 2.6 91.7 2.6 91.82 2.74 91.9 2.85L95.32 7.65 95.62 8.07 95.62 4 94.76 4 94.76 2.62 98.11 2.62 98.11 3.94 97.24 3.94 97.24 10.94C96.76 10.94 96.33 10.94 95.89 10.94 95.7659664 10.9011863 95.6596847 10.8197036 95.59 10.71L92.15 5.91C92.09 5.82 92.01 5.74 91.95 5.65L91.87 5.65M60 9.55L60 4 59.15 4 59.15 2.63 59.28 2.63C60.69 2.63 62.09 2.63 63.49 2.63 64.5690666 2.6501593 65.5112081 3.36586333 65.82 4.4 66.2514264 5.40652794 66.0031951 6.57561772 65.2 7.32 64.855652 7.5912875 64.4795508 7.81963468 64.08 8 64.43 8.45 64.81 9 65.22 9.45 65.28 9.52 65.45 9.52 65.57 9.52L66.18 9.52 66.18 10.9C65.57 10.9 64.96 10.9 64.36 10.9 64.27 10.9 64.16 10.76 64.09 10.67L61.9 7.56C61.84 7.47 61.77 7.38 61.66 7.24L61.66 9.53 62.33 9.53 62.33 10.87 59.17 10.87 59.17 9.55 60 9.55zM61.62 7.06C62.2443375 7.0297197 62.8658262 6.95621029 63.48 6.84 64.0749893 6.6501449 64.4577313 6.0718716 64.4 5.45 64.4344392 4.86751368 64.0735876 4.3344374 63.52 4.15 62.900481 4.06037059 62.2758847 4.01026928 61.65 4L61.62 7.06zM82.42 9.72L83.32 9.72 83.32 10.87 80 10.87 80 9.57C80 9.57 80.08 9.57 80.11 9.57 80.7 9.7 80.96 9.4 81.17 8.87 81.82 7.24 82.53 5.63 83.24 3.98L82.36 3.98 82.36 2.6C83.25 2.6 84.12 2.6 84.99 2.6 85.08 2.6 85.2 2.76 85.24 2.87 86.1 4.87 86.95 6.94 87.8 8.97 88.03 9.53 88.03 9.53 88.62 9.54L88.88 9.54 88.88 10.86 85.36 10.86 85.36 9.72 86.26 9.72C86.1 9.32 85.97 8.96 85.82 8.62 85.7606073 8.54781279 85.6733854 8.50420184 85.58 8.5 84.75 8.5 83.92 8.5 83.09 8.5 82.9807671 8.51807676 82.8853698 8.584121 82.83 8.68 82.68 8.99 82.57 9.32 82.42 9.68M83.31 7.22L85.38 7.22C85.04 6.29 84.7 5.38 84.38 4.41 84.02 5.41 83.68 6.28 83.38 7.22M40.26 9.49L40.26 10.88 36.78 10.88 36.78 9.72 37.68 9.72C37.52 9.32 37.39 8.96 37.24 8.62 37.1806073 8.54781279 37.0933854 8.50420184 37 8.5L34.51 8.5C34.4142011 8.50388776 34.3255921 8.55188432 34.27 8.63 34.12 8.96 34 9.31 33.85 9.71L34.72 9.71 34.72 10.87 31.37 10.87 31.37 9.58C31.4295438 9.56953643 31.4904562 9.56953643 31.55 9.58 32.08 9.69 32.31 9.44 32.55 8.95 33.16 7.4 33.85 5.89 34.55 4.36 34.55 4.24 34.64 4.13 34.69 3.99L33.82 3.99 33.82 2.6C34.32 2.6 34.82 2.6 35.32 2.6 35.82 2.6 36.26 2.48 36.56 2.68 36.86 2.88 36.92 3.39 37.08 3.77 37.7466667 5.45 38.4133333 7.11666667 39.08 8.77 39.08 8.77 39.08 8.77 39.08 8.83 39.1027885 9.10145036 39.2621371 9.34265002 39.5028855 9.47010509 39.743634 9.59756015 40.0326924 9.59375243 40.27 9.46M36.8 7.27C36.45 6.32 36.12 5.42 35.8 4.45L34.72 7.27 36.8 7.27z"/>
    <polygon points="54.7 4.05 54.7 6.07 57.08 6.07 57.08 7.32 54.7 7.32 54.7 9.46 56.72 9.46 56.72 8.4 58.31 8.4 58.31 10.88 52.22 10.88 52.22 9.55 53.07 9.55 53.07 3.96 52.22 3.96 52.22 2.62 58.3 2.62 58.3 5.09 56.73 5.09 56.73 4.05"/>
    <path d="M79.31,8.15 C78.7448184,9.90093733 77.1148945,11.0875504 75.275,11.0875504 C73.4351055,11.0875504 71.8051816,9.90093733 71.24,8.15 C70.5994578,6.3277087 71.2342766,4.30117195 72.8,3.17 C74.3008365,2.0488073 76.3787825,2.11945746 77.8,3.34 L77.8,2.59 L79.13,2.59 L79.13,5.23 C78.65,5.23 78.13,5.23 77.72,5.23 C77.64,5.23 77.55,5.13 77.49,5.05 C76.5776072,3.85541961 74.8731495,3.61893726 73.67,4.52 C72.4933209,5.46447731 72.2766295,7.17147493 73.18,8.38 C74.0714882,9.54494274 75.7338863,9.77669796 76.91,8.9 C77.14,8.74 77.32,8.5 77.54,8.31 C77.613015,8.23058639 77.7126601,8.18076383 77.82,8.17 C78.31,8.17 78.82,8.17 79.33,8.17"/>
    <polygon points="67.72 3.95 66.82 3.95 66.82 3.29 66.82 2.62 70.2 2.62 70.2 3.94 69.34 3.94 69.34 9.54 70.2 9.54 70.2 10.88 66.84 10.88 66.84 9.56 67.72 9.56"/>
    <path d="M142.44,3.23 C142.279527,3.07165203 142.189441,2.85544486 142.19,2.63 C142.184975,2.40660244 142.276002,2.19177766 142.44,2.04 C142.590163,1.87964727 142.800316,1.7890642 143.02,1.78999282 C143.245445,1.78944057 143.461652,1.87952689 143.62,2.04 C143.779906,2.19461891 143.870138,2.40756575 143.87,2.63 C143.875025,2.85339756 143.783998,3.06822234 143.62,3.22 C143.472086,3.3835245 143.260445,3.47474912 143.04,3.47 C142.815366,3.47669872 142.598046,3.3897707 142.44,3.23 M142.34,1.94 C142.155661,2.1216488 142.054369,2.37126209 142.06,2.63 C142.1715,3.0748894 142.571351,3.38689508 143.03,3.38689508 C143.488649,3.38689508 143.8885,3.0748894 144,2.63 C143.996424,2.375997 143.896315,2.13287511 143.72,1.95 C143.540061,1.76198565 143.290228,1.65698334 143.03,1.66 C142.77253,1.66102533 142.525378,1.76131928 142.34,1.94"/>
    <path d="M142.92,2.21 L143.16,2.21 L143.21,2.21 C143.252575,2.24771261 143.274822,2.30332872 143.27,2.36 C143.274795,2.41610648 143.247762,2.47017198 143.2,2.5 C143.145073,2.51985819 143.084927,2.51985819 143.03,2.5 L142.92,2.5 L142.92,2.21 Z M142.62,2.11 L142.62,2.27 L142.73,2.27 L142.73,3 L142.62,3 L142.62,3.16 L143,3.16 L143,3 L142.91,3 L142.91,2.7 L143.24,3.16 L143.48,3.16 L143.48,3 L143.37,3 L143.21,2.79 C143.280854,2.78175284 143.345565,2.74580206 143.39,2.69 C143.438382,2.63099999 143.463306,2.55622924 143.46,2.48 C143.46324,2.37641489 143.419059,2.27700778 143.34,2.21 C143.304382,2.18222818 143.263588,2.16183114 143.22,2.15 C143.170624,2.13883305 143.119376,2.13883305 143.07,2.15 L142.62,2.11 Z"/>
  </g>
</svg>
