<svg xmlns="http://www.w3.org/2000/svg" width="172" height="22" viewBox="0 0 172 22"><g><g><g><path fill="#fff" d="M172 15.365c-1.769.767-4.313 2.167-5.555 3.274-.635-.61-1.482-1.174-2.585-1.174-1.035 0-1.497.372-1.497.723 0 .217.43.183.43.496a.325.325 0 0 1-.317.316c-.242 0-.476-.355-.476-.79 0-.813.361-1.527 1.656-2.868l2.267-2.348c-.936-.477-2.302-1.071-3.06-1.4v-.113a.557.557 0 0 0 .385-.542V8.997c0-.213-.114-.542-.386-.632v-.09c1.905-.678 4.33-2.033 5.714-3.004.31.344 1.122 1.061 1.995 1.061.736 0 .908-.353.908-.61 0-.145-.273-.225-.273-.451 0-.193.104-.271.25-.271.217 0 .408.199.408.61 0 1.219-1.177 2.777-3.016 2.777-1.21 0-1.95-.542-2.517-1.332l-.045.022v3.026l1.677.814.748-.79c.786.494 2.422 1.368 3.289 1.738v.068c-.17.07-.386.27-.386.632v2.144c0 .307.227.498.386.565v.09zm-3.414 1.422v-3.635a67.12 67.12 0 0 1-1.59-.768l-3.522 3.613.023.023c.533-.289 1.181-.588 2.272-.588 1.113 0 2.239.8 2.771 1.378z"/></g><g><path fill="#fff" d="M108.76 15.176c-1.727.762-4.21 2.152-5.422 3.25-.62-.605-1.447-1.165-2.523-1.165-1.01 0-1.46.37-1.46.718 0 .215.42.181.42.493 0 .143-.122.313-.31.313-.236 0-.465-.352-.465-.784 0-.807.353-1.516 1.616-2.848l2.213-2.331c-.914-.474-2.246-1.064-2.988-1.391v-.111a.553.553 0 0 0 .377-.539V8.853c0-.212-.111-.538-.377-.628v-.09c1.859-.672 4.227-2.017 5.577-2.982.303.342 1.095 1.054 1.948 1.054.718 0 .885-.351.885-.605 0-.145-.266-.225-.266-.449 0-.191.102-.269.244-.269.211 0 .398.198.398.606 0 1.21-1.149 2.802-2.944 2.802-1.18 0-1.903-.583-2.456-1.368l-.044.023v3.005l1.637.807.73-.785c.767.491 2.363 1.36 3.209 1.726v.068c-.166.07-.376.269-.376.628v2.13c0 .303.22.493.376.56v.09zm-3.342 1.404v-3.607a64.495 64.495 0 0 1-1.549-.762l-3.43 3.585.022.022c.52-.286 1.15-.582 2.213-.582 1.084 0 2.181.792 2.7 1.367zm24.166-15.123c0 1.803-1.364 2.773-2.833 3.002v11.27c1.793-1.009 2.369-2.122 2.369-2.644 0-.114-.222-.267-.222-.472 0-.158.126-.29.266-.29.201 0 .287.18.287.515 0 2.621-2.478 6.162-7.746 6.162-3.951 0-7.303-3.162-7.303-7.215 0-5.78 4.78-7.774 8.1-7.976-1.217-.269-3.16-.695-4.78-.695-1.88 0-3.43 1.12-3.43 2.129 0 .381.31.448.31.717 0 .148-.064.336-.266.336-.31 0-.354-.293-.354-.537 0-2.196 1.334-5.356 4.603-5.356 3.314 0 5.83 1.21 8.41 1.21 1.705 0 2.212-.605 2.146-1.613l.288.112c.066.157.155.672.155 1.345zm-3.054 14.428V4.504c-.133.01-.373.022-.509.022-.76 0-2.08-.291-2.943-.538-2.567.471-5.555 2.664-5.555 6.789 0 3.538 2.486 5.803 6.02 5.803 1.195 0 2.253-.253 2.987-.695zM163 9.254l-5.245 3.315v2.264c.664.29 2.235 1.075 2.943 1.545l1.129-1.187c.31-.327.22-.874.664-.874.155 0 .266.09.266.269 0 .19-.13.289-.222.38l-3.43 3.451c-1.173-.761-3.54-1.882-4.714-2.374v-.09c.19-.072.398-.202.398-.695V8.963c0-.516-.182-.699-.398-.74v-.09c1.77-.582 4.47-2.038 5.754-2.957.885 1.344 2.014 3.002 2.855 4.078zm-2.678 1.36c-.62-.873-1.815-2.55-2.5-3.578l-.067.022v5.166z"/></g><g><path fill="#fff" d="M154 15.858a70.734 70.734 0 0 0-2.697 2.413c-.613-.548-1.885-1.558-2.674-2.128v-.087c.228-.077.395-.295.395-.812V9.146c-.636-.46-1.886-1.25-2.565-1.689l-.483.417v7.677l1.074.79s-1.49 1.294-2.148 1.93c-.592-.57-1.469-1.229-2.258-1.82v-.088c.228-.077.394-.296.394-.812V9.146c-.636-.46-1.885-1.25-2.565-1.689l-.592.505v7.589l1.074.79s-1.448 1.212-2.148 1.908c-.658-.592-1.382-1.127-2.259-1.799v-.065c.247-.101.395-.396.395-.746V8.29l-.942-.833-.593.504-.219-.241a60.598 60.598 0 0 0 2.697-2.413l1.995 1.799v.504l2.718-2.303c.855.614 3.376 2.216 3.376 2.216l2.609-2.216c.832.658 2.74 1.842 3.792 2.457v.087c-.35.095-.394.549-.394.79v6.602l1.205.9.57-.527zm-141.197-1.25l-2.017 3.729c-1.126-.786-2.938-1.272-4.472-1.272-3.025 0-5.108.548-6.182 1.228L0 18.14c.96-.84 2.565-2.19 2.565-5.264 0-1.295-.521-2.763-.899-3.728C1.229 8.028.899 7.46.899 5.9c0-2.717 1.455-4.258 3.748-5.417l.176.219c-.791.659-1.154 1.511-1.271 2.369L7.212 0c.94 1.32 1.826 1.82 2.982 1.82.949 0 1.228-.411 1.228-.745 0-.242-.33-.29-.33-.526 0-.225.155-.286.286-.286.29 0 .372.376.372.658 0 1.85-1.468 3.225-3.113 3.225-.285 0-.542.01-.723-.022v10.221c1.425 0 3.025.483 4.1 1.031l.504-.9zm-5.108-.263V4.058C6.256 3.9 5.415 2.873 4.933 2.303L3.552 3.421c.007 1.562.452 2.924.986 4.168.488 1.138 1.03 2.62 1.03 3.641 0 1.68-.92 2.742-3.135 4.826l.066.066c1.316-.988 3.428-1.747 5.196-1.777zm9.69 3.916C16.09 17.318 14.2 16.078 13 15.39v-.066c.307-.11.395-.35.395-.723V9.078c0-.509-.132-.702-.395-.789v-.088c2.017-.745 3.924-1.797 5.546-2.915 1.119.833 3.07 2.06 4.363 2.827v.088c-.234.094-.394.329-.394.701v5.48c0 .394.153.547.394.613v.088c-1.466.6-4.297 2.104-5.524 3.178zm2.202-1.723V9.256c-1.012-.548-2.507-1.645-3.21-2.26l-.045.023v7.37c.968.526 2.42 1.491 3.211 2.17zm13.384-1.447c-1.71.745-4.17 2.105-5.37 3.18-.614-.592-1.433-1.14-2.5-1.14-1 0-1.447.362-1.447.702 0 .21.417.177.417.482 0 .14-.12.307-.307.307-.234 0-.46-.345-.46-.768 0-.79.349-1.483 1.6-2.785l2.192-2.282c-.905-.463-2.225-1.04-2.96-1.36v-.109a.54.54 0 0 0 .373-.527V8.905c0-.207-.11-.526-.372-.614v-.088c1.841-.658 4.187-1.974 5.524-2.917.3.334 1.085 1.03 1.93 1.03.71 0 .876-.343.876-.592 0-.14-.263-.219-.263-.438 0-.188.1-.263.241-.263.21 0 .395.193.395.592 0 1.184-1.138 2.742-2.916 2.742-1.17 0-1.885-.57-2.433-1.339l-.044.022v2.94l1.622.79.724-.768c.759.48 2.34 1.33 3.178 1.689v.066c-.164.069-.372.263-.372.614v2.083c0 .298.219.483.372.549zm-3.31 1.371V12.94a64.17 64.17 0 0 1-1.534-.744l-3.398 3.501.022.023c.514-.28 1.14-.57 2.192-.57 1.074 0 2.16.775 2.674 1.336zm22.575-.757l-2.784 2.566a48.902 48.902 0 0 0-2.61-1.732v-.11c.24-.087.37-.331.374-.614a1.286 1.286 0 0 0-.066-.395l-.855-2.676h-5.897l-.79 2.237c1.219 0 2.038.233 2.631.483l.46-.856.285.155-1.907 3.53c-.798-.453-1.698-.811-2.718-.811-1.203 0-2.1.328-2.543.746-.089.084-.228.052-.175-.132.482-1.689 1.799-2.974 3.66-3.093L43.38 3.707c-.48-1.399-1.03-1.71-2.06-1.71-.966 0-1.908.438-1.908 1.622 0 .549.526.5.526.9 0 .14-.12.307-.306.307-.351 0-.592-.483-.592-1.404 0-2.084 1.6-3.312 3.332-3.312 1.578 0 2.192.614 2.674 1.272.154-.614.76-.912 1.228-.987l.066.088c-.293.363-.46.68-.46 1.14 0 .24.174.773.24.965l4.429 12.832.855.57.614-.548zm-6.49-4.65L43.49 4.124l-2.477 6.931zm29.509 6.23C75.185 20.068 73.799 22 71.199 22c-2.034 0-3.523-1.053-5.371-1.053-1.076 0-1.67.35-1.973.724l-.132-.088c.11-2.018 1.53-3.137 3.354-3.137 2.012 0 3.484 1.295 5.613 1.295 1.359 0 2.06-.724 2.192-1.448l-.022-.044c-.285.175-.658.394-1.206.394-1.096 0-2.28-.767-2.477-2.105-.524.365-1.7 1.28-2.214 1.733-1.285-.83-3.355-1.876-4.363-2.325v-.088c.21-.07.35-.337.35-.592V8.993c0-.374-.137-.655-.394-.702v-.087c1.864-.68 4.253-1.93 5.547-2.94 1.121.888 3.162 2.142 4.362 2.83v.11c-.263.11-.395.285-.395.877v6.777c0 .87.074 1.47.702 1.47.1 0 .241-.088.33-.197zm-4.122-.998V9.254c-.855-.482-2.258-1.447-3.2-2.257l-.044.022v7.69c.854.395 2.367 1.293 3.003 1.775zM84.527 9.3l-5.195 3.246v2.216c.658.284 2.214 1.053 2.916 1.513l1.118-1.162c.307-.32.218-.856.657-.856.154 0 .263.088.263.263 0 .187-.128.283-.219.373L80.67 18.27c-1.162-.745-3.507-1.842-4.669-2.325v-.087c.188-.071.394-.198.394-.68V9.014c0-.504-.181-.683-.394-.723v-.088c1.754-.57 4.428-1.996 5.7-2.896.877 1.316 1.995 2.94 2.827 3.992zm-2.652 1.338c-.614-.855-1.798-2.5-2.477-3.51l-.066.023v5.066zM99.369 9.3l-5.195 3.246v2.216c.658.284 2.214 1.053 2.915 1.513l1.118-1.162c.308-.32.218-.856.658-.856.154 0 .263.088.263.263 0 .187-.128.283-.22.373l-3.397 3.378c-1.162-.745-3.508-1.842-4.67-2.325v-.087c.188-.071.395-.198.395-.68V9.014c0-.504-.182-.683-.395-.723v-.088c1.754-.57 4.43-1.996 5.7-2.896.877 1.316 1.995 2.94 2.828 3.992zm-2.643 1.338c-.616-.855-1.804-2.5-2.487-3.51l-.065.023v5.066z"/></g><g><path fill="#fff" d="M63.85 15.63A70.31 70.31 0 0 0 61.144 18a41.67 41.67 0 0 0-2.663-2.09v-.086c.23-.076.396-.29.396-.797v-5.99c-.638-.453-1.892-1.228-2.574-1.66l-.594.496v7.455l1.078.776s-1.454 1.19-2.156 1.874c-.66-.581-1.387-1.107-2.267-1.766v-.065c.248-.099.396-.389.396-.733V8.197l-.946-.82-.594.496-.22-.237c.66-.538 1.76-1.486 2.707-2.37l2.002 1.767v.496l2.728-2.263c.837.647 2.729 1.81 3.785 2.414v.085c-.352.093-.396.54-.396.777v6.485l1.21.883.572-.517zm26.36 0c-.77.646-2.003 1.686-2.706 2.37-.66-.582-1.783-1.43-2.662-2.09v-.065c.247-.098.396-.388.396-.732V3.93l-.946-.818-.595.495-.22-.237c.66-.539 1.607-1.487 2.553-2.37l2.552 2.09v.086c-.286.086-.396.262-.396.905v10.946l1.21.862.573-.496zm45.79 0c-.77.646-2.004 1.686-2.707 2.37-.66-.582-1.782-1.43-2.662-2.09v-.065c.247-.098.396-.388.396-.732V8.197l-.946-.82-.594.496-.22-.237c.66-.538 1.76-1.486 2.706-2.37l2.398 2.09v.087c-.286.086-.396.26-.396.905v6.679l1.21.862.573-.496zm-.66-12.712c-.704.97-1.276 1.422-2.42 1.422-.77 0-1.365-.41-1.98-1.142l-.55.496-.22-.259 2.684-2.349c.77 1.53 1.694 1.767 2.442 1.746z"/></g><g><path fill="#4f689a" d="M165.678 13A33.39 33.39 0 0 0 163 11.752v-.042c.17-.108.232-.28.232-.56V9.216c0-.167-.103-.333-.232-.495l.38-.15c.144.197.274.344.274.73v1.721c0 .258-.032.446-.19.538v.043a29.57 29.57 0 0 1 2.467 1.118zm2.656-4.473c-1.223 0-1.75-.495-2.32-1.248l.422-.279c.527.667 1.132 1.14 2.34 1.14.294 0 .93-.162 1.224-.323v.086c-.274.237-.97.624-1.666.624z"/></g><g><path fill="#4f689a" d="M167.625 18.675c-.546-.65-1.572-1.138-2.315-1.138-.676 0-1.048.209-1.244.372v.093c.364-.098.524-.093.72-.093 1.136 0 1.9.488 2.49 1.091zm-6.603-7.8c-.679-.95-1.927-2.83-2.606-3.875l-.416.232c.723 1.114 1.971 2.994 2.628 3.9zM170 17.144V13.22c-.386-.168-1.292-.603-1.708-.859l-.306.349c.437.209 1.138.58 1.576.812v3.876z"/></g><g><path fill="#4f689a" d="M131.862 4.455c-.809 0-1.336-.47-1.862-1.091l.416-.364c.789.877 1.358 1.134 2.498 1.134v.086zm11.941 13.512c-.57-.535-1.38-1.135-1.928-1.52v-.043c.241-.086.285-.322.285-.857V9.186a66.74 66.74 0 0 0-2.585-1.65l.394-.342a175.76 175.76 0 0 0 2.629 1.713v6.619c0 .44-.056.7-.22.792v.043c.527.321 1.206.835 1.732 1.306zm6.376.033c-.564-.584-1.775-1.455-2.323-1.861v-.043c.241-.086.285-.322.285-.856V9.184a66.931 66.931 0 0 0-2.585-1.648l.394-.342c.767.513 1.862 1.22 2.629 1.712v6.312c0 .44-.055.7-.22.792v.043c.505.343 1.623 1.156 2.148 1.626zm7.558 0c-1.095-.685-3.286-1.69-4.272-2.076v-.042c.154-.065.241-.249.241-.492V9.163c0-.385-.104-.53-.241-.663l.373-.129c.153.107.306.257.306.727v5.841c0 .441-.055.68-.219.771v.043c.81.3 2.826 1.177 4.075 1.968z"/></g><g><path fill="#4f689a" d="M125.79 4.808c-2.229 0-4.373-1.319-8.258-1.319-.662 0-.955.043-1.51.234L116 3.617c.222-.213.932-.617 1.776-.617 3.774 0 5.74 1.361 8.325 1.361 1.288 0 1.91-.319 2.354-.616l.044.127zM133.05 18a35.604 35.604 0 0 0-2.331-1.83v-.042c.237-.136.266-.362.266-.702V8.468l-.999-.85.356-.32 1.087.957v7.149c0 .32-.06.527-.222.638v.043c.533.341 1.643 1.17 2.154 1.617zm5.64-.021a24.68 24.68 0 0 0-1.932-1.51v-.043c.237-.136.266-.362.266-.703V8.468l-1.021-.872.355-.32 1.11.98v7.446c0 .32-.06.527-.222.639v.042c.533.34 1.243.851 1.754 1.298z"/></g><g><path fill="#4f689a" d="M102.95 12.859c-.7-.37-1.868-.89-2.484-1.129v-.043c.16-.093.191-.282.191-.542V9.409c0-.39-.13-.539-.275-.738l-.382.152c.13.163.233.33.233.499v1.953c0 .282-.063.455-.233.564v.043c.679.283 1.804.782 2.695 1.26zm4.106-4.86v-.087c-.296.162-.939.368-1.234.368-1.22 0-1.83-.52-2.362-1.193l-.426.282c.575.76 1.107 1.302 2.34 1.302.703 0 1.405-.434 1.682-.673zM125 17.958l-.042-.13c-.794.37-2.102.672-4.096.672-3.523 0-6.367-2.719-6.367-6.51 0-2.388.91-4.021 1.613-4.948L116 7c-.721.781-2.058 2.213-2.058 5.23 0 3.894 3.164 6.77 6.727 6.77 2.271 0 3.757-.716 4.33-1.042z"/></g><g><path fill="#4f689a" d="M103.635 18.675c-.548-.65-1.577-1.138-2.321-1.138-.679 0-1.051.209-1.248.372v.093c.365-.098.525-.093.722-.093 1.14 0 1.905.488 2.496 1.091zm-6.613-7.8c-.68-.95-1.927-2.83-2.606-3.875L94 7.232c.723 1.114 1.97 2.994 2.628 3.9zM106 17.144V13.22c-.386-.168-1.292-.603-1.708-.859l-.307.349c.438.209 1.139.58 1.577.812v3.876z"/></g><g><path fill="#4f689a" d="M82.584 10.703c-.646-.833-1.873-2.56-2.584-3.585l.41-.213c.667.96 1.894 2.688 2.562 3.563zm5.405 7.276a34.796 34.796 0 0 0-2.26-1.835V16.1c.23-.136.257-.363.257-.704V4.195l-.99-.875.344-.32 1.077.982v11.393c0 .32-.058.529-.215.64v.043a23.918 23.918 0 0 1 2.089 1.622zM95.72 18c-1.055-.64-3.23-1.686-4.199-2.07v-.042c.15-.064.237-.248.237-.49v-6.21c0-.384-.103-.528-.237-.661l.366-.128c.15.106.301.256.301.725v5.824c0 .44-.054.678-.215.769v.043c.797.298 2.8 1.237 4.027 1.941z"/></g><g><path fill="#4f689a" d="M73.647 19c-1.085 0-2.325-.762-2.325-2.245V9.578C70.26 9.022 68.797 7.956 68 7.267L68.42 7c.842.756 2.348 1.778 3.345 2.289v7.266c0 1.414 1.051 2.178 2.06 2.178.485 0 .814-.087.952-.111v.067zm7.065-.378c-1.107-.711-3.321-1.755-4.318-2.156v-.044c.155-.067.243-.258.243-.51V9.444c0-.4-.105-.55-.243-.689l.376-.133c.155.11.31.266.31.755v6.044c0 .458-.056.705-.221.8v.044c.82.311 2.88 1.334 4.141 2.045z"/></g><g><path fill="#4f689a" d="M46.329 11.464zm0 0h-.555l-2.399-7.189c-.515-1.544-1.11-1.931-2.309-1.931-.422 0-.844.107-1.066.214l.022-.15c.253-.18.822-.395 1.488-.407 1.177-.022 1.81.515 2.265 1.867zm8.386 6.78a24.514 24.514 0 0 0-1.926-1.523v-.042c.237-.137.266-.365.266-.709V8.653l-1.019-.88.354-.322 1.107.987v7.51c0 .323-.06.532-.221.645v.042c.531.344 1.24.86 1.749 1.31zm6.582 0c-.666-.578-1.799-1.415-2.354-1.823v-.043c.244-.086.289-.322.289-.858V9.447a67.383 67.383 0 0 0-2.62-1.652l.399-.344a180.96 180.96 0 0 0 2.665 1.717v6.266c0 .442-.056.702-.222.794v.043c.51.343 1.577 1.18 2.176 1.652zM71.247 22c-1.83 0-3.576-1.051-5.242-1.051-.71 0-1.11.086-1.399.193v-.064c.289-.28.71-.558 1.665-.558 1.46 0 3.043 1.03 5.22 1.03 1.332 0 2.023-.392 2.509-.773v.129c-.333.365-1.221 1.094-2.754 1.094zm-2.257-3.712c-1.18-.687-2.938-1.674-4.029-2.124v-.044c.17-.127.2-.27.2-.514V9.468c0-.343-.058-.618-.266-.73l.4-.15c.2.172.312.43.312.837v5.794c0 .387-.022.558-.156.687v.043c1.291.58 2.893 1.438 3.917 2.017z"/></g><g><path fill="#4f689a" d="M50 17.575a28.808 28.808 0 0 0-1.972-1.388.667.667 0 0 0 .189-.448c0-.13-.059-.384-.105-.537L47.147 12h-6.021l-.126.425h5.748l.902 2.91c.056.18.063.336.063.471 0 .446-.251.605-.251.605.524.313 1.49 1.074 2.097 1.589l.441-.425"/></g><g><path fill="#4f689a" d="M27.657 13.392A32.174 32.174 0 0 0 25 12.064v-.046c.167-.115.23-.298.23-.595v-2.06c0-.179-.103-.356-.23-.527l.377-.16c.142.21.272.366.272.778v1.831c0 .275-.032.475-.189.572v.046c.607.252 1.758.802 2.448 1.19zM30.3 8.675c-1.217 0-1.74-.574-2.307-1.377l.42-.298c.524.712 1.125 1.262 2.327 1.262.292 0 .926-.173 1.217-.344v.092c-.273.252-.964.665-1.657.665zM40.729 19c-.796-.528-1.528-.78-2.47-.78-.544 0-1.058.136-1.276.183l-.021-.091c.21-.161.858-.574 1.59-.574.963 0 1.8.23 2.448.734z"/></g><g><path fill="#4f689a" d="M8.375 4.143C6.647 4.143 5.68 3.184 5 2.346L5.414 2c.418.532 1.554 1.818 3.353 1.818.51 0 1.07-.265 1.372-.411l.022.152zm11.172 12.32v-7.21c-1.11-.563-2.635-1.71-3.266-2.252l.413-.238c.719.607 2.221 1.69 3.289 2.208v7.253zM27.3 18c-.588-.563-1.35-1.018-2.483-1.018-.196 0-.355-.004-.719.087v-.087c.197-.152.567-.347 1.242-.347.74 0 1.764.455 2.308 1.061zm2.264-1.494V12.89c-.435-.217-1.132-.563-1.567-.758l.304-.325c.414.239 1.315.644 1.699.801v3.66z"/></g><g><path fill="#4f689a" d="M4.064 13.448c0-2.537-1.702-4.505-1.702-7.232 0-1.227.141-1.755.298-2.216l-.107.022C2.258 4.62 2 5.592 2 6.642c0 2.777 1.574 4.298 1.574 7.03 0 .782-.069 1.436-.297 2.06h.127zM18 18.754c-.974-.784-2.745-1.993-3.723-2.552v-.045c.133-.117.191-.319.191-.695v-5.73c0-.386-.106-.672-.298-.83l-.383.158c.192.112.256.422.256.738v5.91c0 .247-.083.475-.234.56v.045c1.236.741 2.91 1.893 3.893 2.687z"/></g><g><path fill="#4f689a" d="M11 17.405C10.374 16.785 8.735 16 7.28 16c-2.308 0-3.618.708-4.28 1.027v.162c.683-.23 1.83-.621 3.99-.621 1.657 0 3.076.86 3.778 1.432l.232-.595"/></g><g><path fill="#fff" d="M125 5.507c0 .147-.13.21-.24.21-.188 0-.35-.358-.873-.358-.771 0-1.42.69-1.42 1.434 0 1.963 2.009 2.763 2.009 5 0 1.877-1.901 2.96-3.865 3.207l-.371-.253c1.076-.135 1.594-.487 1.594-1.751 0-1.71-1.834-3.096-1.834-5.106 0-1.626 1.572-2.89 3.734-2.89.42 0 .842.122 1.07.232.13.063.196.148.196.275"/></g><g><path fill="#4f689a" d="M123 12.306c0-1.702-2.417-3.081-2.417-4.938 0-.51.126-.965.445-1.348l-.139-.02c-.306.224-.889.816-.889 1.571 0 1.915 2.305 3.066 2.305 4.96 0 .632-.221 1.06-.61 1.428l.166.041c.556-.306 1.139-.735 1.139-1.694"/></g></g></g></svg>