<?xml version="1.0" encoding="utf-8"?>
<!-- Generator: Adobe Illustrator 16.0.0, SVG Export Plug-In . SVG Version: 6.00 Build 0)  -->
<!DOCTYPE svg PUBLIC "-//W3C//DTD SVG 1.1//EN" "http://www.w3.org/Graphics/SVG/1.1/DTD/svg11.dtd">
<svg version="1.1" id="Layer_1" xmlns="http://www.w3.org/2000/svg" xmlns:xlink="http://www.w3.org/1999/xlink" x="0px" y="0px"
	 width="275px" height="100px" viewBox="0 0 275 100" enable-background="new 0 0 275 100" xml:space="preserve">
<g>
</g>
<g>
	<path fill="#949DB4" d="M68.944,29.715v40.571h12.021V38.731L68.944,29.715z M64.184,33.274v37.012h2.5v-38.91L64.184,33.274z
		 M59.423,70.286h2.499V35.054l-2.499,1.779V70.286z M54.662,70.286h2.5V38.613l-2.5,1.899V70.286z M83.226,47.865v22.421h12.023
		V56.881L83.226,47.865z M49.901,51.425v18.861h2.5V49.645L49.901,51.425z M45.141,70.286h2.499V53.204l-2.499,1.78V70.286z
		 M40.379,70.286h2.499V56.762l-2.499,1.899V70.286z"/>
	<path fill="#949DB4" d="M126.191,52.255c-3.567,0-5.828-2.017-5.828-5.932v-7.592h2.972v7.592c0,2.135,1.073,3.321,2.977,3.321
		c1.783,0,2.856-1.187,2.856-3.321v-7.592h2.976v7.474C132.144,50.357,129.762,52.255,126.191,52.255z M140.95,52.255
		c-2.021,0-4.046-0.711-5.593-2.135l1.667-2.017c1.189,0.949,2.499,1.542,4.045,1.542c1.189,0,1.903-0.474,1.903-1.187V48.34
		c0-0.711-0.475-1.068-2.734-1.661c-2.62-0.712-4.407-1.542-4.407-4.152c0-2.491,1.904-4.033,4.644-4.033
		c2.023,0,3.688,0.593,4.997,1.66l-1.547,2.254c-1.067-0.83-2.261-1.304-3.45-1.304c-1.071,0-1.666,0.474-1.666,1.186
		c0,0.831,0.595,1.187,2.855,1.78c2.739,0.712,4.286,1.661,4.286,4.034C145.951,50.831,143.926,52.255,140.95,52.255L140.95,52.255z
		 M158.326,52.136v-5.457h-5.475v5.458h-2.973V38.732h2.973v5.218h5.475v-5.219h2.978v13.404H158.326z M209.506,52.136l-6.306-8.422
		v8.422h-2.856V38.731h2.735l6.311,8.541v-8.541h2.856v13.404H209.506z M151.782,70.286l-4.163-5.695l-1.548,1.661v4.034h-2.978
		V56.881h2.978v5.931l5.476-5.931h3.566l-5.476,5.694l5.717,7.711H151.782z M158.685,70.286V56.881h9.997v2.609h-7.142v2.729h6.312
		v2.61h-6.312v2.848h7.263v2.609H158.685z M187.248,70.286h2.856V56.881h-2.856V70.286z M194.512,70.286V56.881h9.998v2.609h-7.023
		v2.729h6.188v2.61h-6.188v2.848h7.139v2.609H194.512z M209.032,70.286V56.881h2.973v10.796h6.669v2.609H209.032z M227.479,70.286
		h-5.238V56.881h5.238c4.285,0,7.142,2.966,7.142,6.644v0.118C234.62,67.438,231.764,70.286,227.479,70.286L227.479,70.286z
		 M231.527,63.643c0-2.372-1.667-4.033-4.049-4.033h-2.262v8.067h2.262C229.86,67.677,231.527,66.015,231.527,63.643L231.527,63.643
		z M111.674,49.645c-2.502,0-4.165-1.897-4.165-4.152v-0.119c0-2.254,1.546-4.152,3.924-4.152c1.31-0.118,2.503,0.475,3.334,1.423
		l1.904-2.254c-1.31-1.187-3.093-2.017-5.238-1.897c-4.165,0-7.138,3.203-7.021,6.999c0.12,3.915,3.097,6.881,7.262,6.762
		c2.142,0,4.045-0.949,5.234-2.373l-2.021-1.898C114.173,48.933,112.983,49.525,111.674,49.645L111.674,49.645z M176.299,38.731
		h3.213v13.404h-2.855v-8.778l-3.809,5.694h-0.116l-3.812-5.694v8.779h-2.736V38.732h3.094l3.57,5.575L176.299,38.731z
		 M188.441,38.731l-5.716,13.404h3.098l1.188-3.083h5.712l1.193,3.083h3.092l-5.712-13.404H188.441z M188.085,46.442l1.783-4.27
		l1.786,4.27H188.085z M131.309,56.881l-5.712,13.405h2.977l1.309-2.967h5.596l1.306,2.967h2.976l-5.711-13.405H131.309z
		 M130.835,64.71l1.783-4.389l1.788,4.389H130.835z M175.945,59.609v2.847h6.307v2.729h-6.307v5.102h-2.978V56.881h10.235v2.729
		H175.945z M122.383,56.881l-3.094,9.371l-3.092-9.371h-2.86l-3.093,9.371l-3.093-9.371h-3.213l4.876,13.405h2.977l2.977-9.136
		l3.093,9.136h2.856l4.88-13.405H122.383z M231.05,48.814l1.546-1.779l-1.782-1.898l-1.431,1.543l-1.667-2.017
		c1.072-0.594,1.787-1.78,1.787-2.966c-0.12-1.897-1.547-3.203-3.45-3.203c-0.952,0-1.788,0.356-2.383,0.949
		c-0.596,0.593-0.952,1.424-0.952,2.373c0.121,1.067,0.716,1.898,1.188,2.492c-1.545,0.593-2.734,2.253-2.617,3.915
		c0.119,2.253,2.023,4.152,4.405,4.152c1.309,0,2.735-0.712,3.688-1.78l1.192,1.542h3.451L231.05,48.814z M227.835,48.695
		c-0.715,0.83-1.425,1.187-2.141,1.187c-0.952,0-1.788-0.711-1.788-1.779c-0.116-0.594,0.358-1.423,1.668-2.017L227.835,48.695z
		 M226.169,43.12c-0.358-0.355-0.831-0.83-0.952-1.304c0-0.475,0.236-0.949,0.952-1.068c0.595,0,0.951,0.475,0.951,1.067
		C227.12,42.408,226.525,42.883,226.169,43.12z"/>
</g>
</svg>
