<svg xmlns="http://www.w3.org/2000/svg" width="275" height="100" viewBox="0 0 275 100">
  <g fill="#949DB4" fill-rule="evenodd" transform="translate(74 30)">
    <path d="M77.05,20.2 L77.05,4.41666667 C77.05,1.74166667 78.4083333,1.08333333 79.7916667,0.933333333 L79.7916667,0.6 L68.3333333,0.6 L68.3333333,0.933333333 C69.7166667,1.06666667 70.9083333,1.76666667 70.9083333,4.41666667 L70.9083333,20.2 C70.9083333,22.875 69.75,23.5333333 68.3333333,23.675 L68.3333333,24.0083333 L79.7916667,24.0083333 L79.7916667,23.675 C78.4083333,23.5416667 77.05,22.8416667 77.05,20.2"/>
    <path d="M93.0666667,23.675 C91.8166667,23.275 90.525,22.2416667 88.6083333,19.125 L82.4333333,9.23333333 L85,5.95 C87.875,2.275 90.15,1.10833333 92.2,0.95 L92.2,0.616666667 L83.3333333,0.616666667 L83.3333333,0.95 C85.3166667,1.25 86.4333333,2.95833333 83.8916667,6.16666667 L78.1083333,13.4583333 L77.65,14.0166667 L81.925,20.8333333 C84.269887,24.6002332 89.0938336,25.9676795 93.0666667,23.9916667 L93.0666667,23.675 Z"/>
    <path d="M99.9166667,24.6166667 C103.35,24.6166667 105.991667,22.375 106.916667,18.7833333 L106.558333,18.6833333 C105.748402,20.2378275 104.144483,21.2162183 102.391667,21.225 C99.75,21.225 97.8,19.1166667 97.6,15.1416667 L107.05,15.1416667 C106.85,10.8583333 104.108333,8.11666667 100.275,8.11666667 C96.05,8.11666667 92.35,11.8333333 92.35,16.675 C92.2710935,18.7476321 93.0344172,20.7639604 94.466108,22.2647241 C95.8977988,23.7654877 97.8759513,24.6228997 99.95,24.6416667 M100.241667,8.71666667 C101.433333,8.71666667 102.158333,10.325 102.091667,14.4416667 L97.6,14.4416667 C97.6,10.8916667 98.925,8.71666667 100.241667,8.71666667"/>
    <path d="M120.191667,8.69166667 L120.191667,8.99166667 C122.216667,9.15833333 123.308333,10.475 119.275,21.2666667 C119.203889,20.9225493 119.112055,20.5830421 119,20.25 C118.925,20.025 118.841667,19.8 118.741667,19.575 C118.741667,19.575 117.616667,17.1166667 116.716667,14.6666667 L116.066667,12.6416667 C115.3,10.2333333 115.608333,9.05833333 116.9,8.99166667 L116.9,8.69166667 L107.05,8.69166667 L107.05,9.16666667 L107.191667,9.225 C107.875,9.51666667 108.65,10.1166667 109.75,12.5166667 L113.775,21.9916667 C113.866667,22.2083333 113.925,22.4416667 114.025,22.65 C116.283333,27.2333333 113.908333,30.4333333 110.691667,32.8166667 L110.491667,32.975 C108.170951,34.6437987 105.383422,35.5389569 102.525,35.5333333 C100.936848,35.5304733 99.364971,35.2132657 97.9,34.6 C96.5666667,33.7666667 96.675,32.5916667 96.8083333,31.1916667 C96.9192089,30.4857394 96.8994362,29.7654481 96.75,29.0666667 C96.4407573,27.9430281 95.4153897,27.1671666 94.25,27.175 C92.9029059,27.1268218 91.7601623,28.155291 91.6666667,29.5 C91.593974,30.510608 91.9545404,31.5044381 92.6583333,32.2333333 L92.6583333,32.2333333 C93.2471662,32.9773161 93.9570949,33.6168154 94.7583333,34.125 L94.9666667,34.2583333 C95.6942434,34.7668214 96.4702261,35.202265 97.2833333,35.5583333 L97.425,35.6333333 L97.425,35.6333333 C99.0326341,36.3173252 100.761244,36.6715486 102.508333,36.675 C106.589941,36.6589452 110.492598,34.9975368 113.333333,32.0666667 C115.92641,29.4144416 118.008414,26.3069733 119.475,22.9 C119.75,22.3083333 120,21.7166667 120.241667,21.1333333 C120.241667,21.1333333 124.491667,8.98333333 126.575,8.98333333 L126.575,8.68333333 L120.191667,8.69166667 Z"/>
    <polygon points="2.5 39.683 2.5 31.242 3.608 31.242 3.608 34.6 8.733 34.6 8.733 31.242 9.833 31.242 9.833 39.683 8.733 39.683 8.733 35.6 3.608 35.6 3.608 39.683"/>
    <path d="M18.0916667,31.025 C19.7434538,30.92377 21.3149828,31.7475123 22.1714925,33.1635064 C23.0280021,34.5795006 23.0280021,36.3538328 22.1714925,37.7698269 C21.3149828,39.185821 19.7434538,40.0095633 18.0916667,39.9083333 C15.6386019,39.9083333 13.65,37.9197314 13.65,35.4666667 C13.65,33.0136019 15.6386019,31.025 18.0916667,31.025 M18.0916667,38.9083333 C19.3631742,38.9708812 20.5657995,38.3281314 21.2202991,37.2362185 C21.8747986,36.1443055 21.8747986,34.7806945 21.2202991,33.6887815 C20.5657995,32.5968686 19.3631742,31.9541188 18.0916667,32.0166667 C16.8201592,31.9541188 15.6175338,32.5968686 14.9630343,33.6887815 C14.3085347,34.7806945 14.3085347,36.1443055 14.9630343,37.2362185 C15.6175338,38.3281314 16.8201592,38.9708812 18.0916667,38.9083333"/>
    <polygon points="33.808 39.683 33.808 33.283 33.742 33.283 30.725 38.417 30.5 38.417 27.483 33.283 27.417 33.283 27.417 39.683 26.358 39.683 26.358 31.242 27.533 31.242 30.65 36.558 30.675 36.558 33.792 31.242 34.917 31.242 34.917 39.683"/>
    <polygon points="43.767 35.742 40.4 35.742 40.4 38.692 46.283 38.692 46.283 39.683 39.283 39.683 39.283 31.242 45.992 31.242 45.992 32.233 40.4 32.233 40.4 34.742 43.767 34.742"/>
    <path d="M55.6583333 33.025C54.7878353 32.3141349 53.6900367 31.9412976 52.5666667 31.975 51.4916667 31.975 50.3916667 32.3666667 50.3916667 33.425 50.3916667 34.4833333 51.775 34.5666667 53.1333333 34.6416667 54.4916667 34.7166667 56.9333333 34.8916667 56.9333333 37.1416667 56.9333333 39.1083333 55.2083333 39.9 53.2083333 39.9 51.5751727 39.9263803 49.9984289 39.3028771 48.825 38.1666667L49.5 37.3833333C50.4841696 38.3838071 51.8299366 38.9455446 53.2333333 38.9416667 54.65 38.9416667 55.825 38.425 55.825 37.275 55.825 36.0083333 54.55 35.8166667 53.1333333 35.7083333 51.325 35.5916667 49.2833333 35.4666667 49.2833333 33.5166667 49.2833333 31.5666667 51.1083333 31.0166667 52.6166667 31.0166667 53.9571518 31.0013499 55.2646609 31.4323002 56.3333333 32.2416667L55.6583333 33.025zM10.7333333 1.30833333C13.7416667 1.30833333 16.6166667 3.14166667 19.0666667 8.09166667L19.6583333 8.09166667 18.9666667.591666667 0 .591666667 0 .925C1.325 1.05833333 2.575 1.83333333 2.575 4.50833333L2.575 20.2C2.575 22.875 1.325 23.5333333 0 23.675L0 24.0083333 11.5 24.0083333 11.5 23.675C10.1083333 23.5416667 8.75833333 22.8416667 8.75833333 20.2L8.75833333 12.175 9.45 12.175C12.0583333 12.175 16.05 14.075 16.4833333 16.55L16.9416667 16.55 16.9416667 7.15833333 16.4833333 7.15833333C16.1166667 9.46666667 12.1583333 11.4666667 9.45 11.4666667L8.75833333 11.4666667 8.75833333 1.30833333 10.7333333 1.30833333zM24.45 6.38333333C26.2127088 6.38333333 27.6416667 4.95437549 27.6416667 3.19166667 27.6416667 1.42895784 26.2127088 0 24.45 0 22.6764968.0271959322 21.2505309 1.46797715 21.2416667 3.24166667 21.2909742 4.98182788 22.7091871 6.3705715 24.45 6.38333333M27.2916667 21.3L27.2916667 12.5416667 27.3583333 8.225 27.0916667 8.125 19.5916667 10.2 19.5916667 10.5333333C20.65 10.4666667 21.775 10.9333333 21.775 12.875L21.775 21.3C21.775 23.0083333 20.85 23.575 19.925 23.675L19.925 24.0083333 29.2416667 24.0083333 29.2416667 23.675C28.6610286 23.6361379 28.1222747 23.3590106 27.7529973 22.9092496 27.3837198 22.4594886 27.2167629 21.8770964 27.2916667 21.3M47.25 10.6333333C47.2450599 9.87595381 47.7301596 9.20220422 48.45 8.96666667L48.45 8.88333333C46.5416667 9.20833333 43.65 10.4333333 43.625 13.2833333 43.6833333 18.775 51.875 18.6916667 51.875 21.9916667 51.875 23.125 50.95 23.9916667 49.4666667 23.9916667 47.2833333 23.9916667 45.4 21.925 44.875 18.7416667L44.4833333 18.7416667 43.1583333 23.4916667C45.0245686 24.2480337 47.0196503 24.6357304 49.0333333 24.6333444 53.3333333 24.6166667 55.8333333 22.5 55.8333333 19.5 55.8333333 13.9083333 47.2416667 14.0416667 47.2416667 10.6333333M65.8333333 21.5333333C65.3134964 21.5207771 64.8231927 21.28905 64.4834832 20.895368 64.1437737 20.5016859 63.9863204 19.9827413 64.05 19.4666667L64.05 9.4 67.5 9.4 67.5 8.69166667 64.0083333 8.69166667 64.0083333 1.775 63.5416667 1.775 58.5416667 6.775 58.5416667 22.0833333C58.53323 22.6660128 58.8181501 23.2139362 59.3 23.5416667 62.7 25.8416667 66.125 23.8916667 67.925 20.6333333L67.5 20.3666667C66.975 21.2 66.475 21.5333333 65.7833333 21.5333333"/>
    <path d="M38,21.3333333 L38,14.925 C38.4666667,12.0916667 44.1333333,7.61666667 48.2833333,7.61666667 C49.9021369,7.53126179 51.4075359,8.44773547 52.075,9.925 C52.4831167,10.5907729 52.5481627,11.4115911 52.25,12.1333333 C52.0797271,12.485145 52.0586933,12.8907978 52.1916667,13.2583333 C52.4280504,13.7712516 52.9435964,14.0975465 53.5083333,14.0916667 C54.067242,14.087162 54.5828319,13.7898279 54.8666667,13.3083333 C55.4382489,12.2901925 55.3997632,11.0394071 54.7666667,10.0583333 C53.3934912,7.7810569 50.8905977,6.43064369 48.2333333,6.53333333 C45.8666667,6.53333333 42.1916667,7.48333333 37.9833333,11.925 L37.9833333,8.25 L37.7166667,8.15 L30.3833333,10.225 L30.3833333,10.5583333 C31.4416667,10.4916667 32.5583333,10.9583333 32.5583333,12.9 L32.5583333,21.3333333 C32.5583333,23 31.6083333,23.6083333 30.6416667,23.7083333 L30.6416667,24.0083333 L39.9083333,24.0083333 L39.9083333,23.7083333 C38.9583333,23.6083333 38,23.0416667 38,21.3333333"/>
  </g>
</svg>
