<svg xmlns="http://www.w3.org/2000/svg" width="88" height="26" viewBox="0 0 88 26"><g><g><g><path fill="#fff" d="M65.759 21.261a8.752 8.752 0 0 1-.938.811 5.792 5.792 0 0 1-.964.574 4.771 4.771 0 0 1-1.06.352 6.01 6.01 0 0 1-1.225.117 2.976 2.976 0 0 1-1.761-.48c-.45-.32-.674-.85-.674-1.591A1.82 1.82 0 0 1 59.462 20c.28-.37.66-.658 1.097-.836a8.525 8.525 0 0 1 2.04-.59 18.17 18.17 0 0 1 3.165-.232zm2.485-11.375a6.007 6.007 0 0 0-2.098-1.394 7.461 7.461 0 0 0-2.827-.49c-2.05 0-4.974.429-6.799 1.965-.217.199-.386.443-.492.713-.124.28-.186.58-.185.884-.002.295.061.586.185.856.118.26.285.495.492.697.217.197.47.353.747.46.282.118.586.18.893.178.314.002.625-.059.914-.179a2.375 2.375 0 0 0 1.253-1.176c.133-.267.2-.56.194-.856a.618.618 0 0 1 .475-.657c1.476-.34 3.024.143 4.018 1.251.509.558.763 1.426.763 2.606v1.026a21.896 21.896 0 0 0-5.141.51c-1.169.257-2.289.69-3.317 1.285a4.968 4.968 0 0 0-1.781 1.753 3.972 3.972 0 0 0-.536 1.952 5.112 5.112 0 0 0 .38 2.062 4.06 4.06 0 0 0 1.08 1.483 4.575 4.575 0 0 0 1.67.886 7.114 7.114 0 0 0 2.106.299 9.319 9.319 0 0 0 1.755-.154 7.18 7.18 0 0 0 1.493-.457 8.248 8.248 0 0 0 1.36-.755c.469-.322.917-.67 1.343-1.043l.387 1.238c.06.3.245.565.51.733.302.133.633.194.965.178H70V14.73c.011-.922-.14-1.84-.446-2.714a5.916 5.916 0 0 0-1.309-2.13z"/></g><g><path fill="#33b3e3" d="M5.79 3.484A2.594 2.594 0 0 1 4.445 4.8a2.42 2.42 0 0 1-.979.2 2.325 2.325 0 0 1-.955-.2 2.516 2.516 0 0 1-.779-.526 2.581 2.581 0 0 1-.52-.79A2.36 2.36 0 0 1 1 2.511c-.002-.342.065-.68.197-.995.123-.294.299-.562.52-.79.225-.222.489-.4.778-.526a2.31 2.31 0 0 1 .956-.2c.34-.006.678.06.991.193.296.124.566.302.797.526.23.226.414.494.545.79.143.314.216.656.216 1.002.002.331-.068.66-.205.96"/></g><g><path fill="#fff" d="M88 25V14.357a8.273 8.273 0 0 0-.379-2.57 5.701 5.701 0 0 0-1.103-2.007 4.958 4.958 0 0 0-1.826-1.318 6.337 6.337 0 0 0-2.5-.46 7.512 7.512 0 0 0-1.61.163c-.478.105-.941.264-1.38.474a7.7 7.7 0 0 0-1.228.734 9.401 9.401 0 0 0-1.103.946l-.276-1.321a1.018 1.018 0 0 0-1.06-.737H71v1.257c0 .946 1.881.268 1.881 1.977V25h4.254V12.897a7.205 7.205 0 0 1 1.78-1.29 4.419 4.419 0 0 1 2.014-.465c.975 0 1.706.28 2.193.84.487.562.73 1.353.726 2.375V25z"/></g><g><path fill="#fff" d="M6 8H0v1.293c0 .843 1.86.359 1.86 2.019V25H6z"/></g><g><path fill="#fff" d="M25 25V14.357a8.305 8.305 0 0 0-.378-2.57 5.704 5.704 0 0 0-1.104-2.007 4.958 4.958 0 0 0-1.826-1.318 6.337 6.337 0 0 0-2.5-.46 7.513 7.513 0 0 0-1.61.163c-.478.105-.941.264-1.38.474a7.687 7.687 0 0 0-1.225.734 9.383 9.383 0 0 0-1.104.946l-.275-1.321a1.018 1.018 0 0 0-1.06-.737H8v1.257c0 .946 1.881.268 1.881 1.977V25h4.252V12.897a7.208 7.208 0 0 1 1.78-1.29 4.419 4.419 0 0 1 2.016-.465c.975 0 1.706.28 2.193.84.487.562.73 1.353.726 2.375V25z"/></g><g><path fill="#fff" d="M53.602 11.657a5.382 5.382 0 0 0-1.197-1.987 5.096 5.096 0 0 0-1.942-1.241 7.645 7.645 0 0 0-2.639-.423c-.574 0-1.146.06-1.706.18a6.69 6.69 0 0 0-1.602.546c-.51.257-.976.585-1.382.972a5.09 5.09 0 0 0-1.048 1.44 5.153 5.153 0 0 0-1.634-2.276 4.387 4.387 0 0 0-2.797-.865 5.997 5.997 0 0 0-1.48.171 6.337 6.337 0 0 0-2.36 1.168c-.35.279-.68.579-.988.898L32.54 9c-.131-.46-.594-.768-1.103-.734H27V9.72c0 .68 1.924.536 1.924 1.822V25h4.208V12.75c.43-.47.94-.87 1.513-1.18a3.64 3.64 0 0 1 1.74-.427c.944 0 1.658.255 2.143.766.484.511.726 1.327.726 2.45V25h4.337V14.358c-.01-.472.073-.94.244-1.385.278-.737.888-1.324 1.669-1.608a3.51 3.51 0 0 1 1.232-.211c.967 0 1.7.268 2.202.804.502.535.753 1.34.753 2.41V25h4.308V14.358a8.126 8.126 0 0 0-.41-2.692"/></g></g></g></svg>